<?xml version="1.0" encoding="UTF-8" standalone="no"?>
<svg
   xmlns:dc="http://purl.org/dc/elements/1.1/"
   xmlns:cc="http://creativecommons.org/ns#"
   xmlns:rdf="http://www.w3.org/1999/02/22-rdf-syntax-ns#"
   xmlns:svg="http://www.w3.org/2000/svg"
   xmlns="http://www.w3.org/2000/svg"
   xmlns:sodipodi="http://sodipodi.sourceforge.net/DTD/sodipodi-0.dtd"
   xmlns:inkscape="http://www.inkscape.org/namespaces/inkscape"
   sodipodi:docname="Connected.svg"
   inkscape:version="1.0 (4035a4fb49, 2020-05-01)"
   id="svg8"
   version="1.1"
   viewBox="0 0 215.32333 237.26624"
   height="237.26624mm"
   width="215.32333mm">
  <defs
     id="defs2" />
  <sodipodi:namedview
     inkscape:window-maximized="1"
     inkscape:window-y="-8"
     inkscape:window-x="-8"
     inkscape:window-height="837"
     inkscape:window-width="1600"
     showgrid="false"
     inkscape:document-rotation="0"
     inkscape:current-layer="layer1"
     inkscape:document-units="mm"
     inkscape:cy="672.01029"
     inkscape:cx="505.64751"
     inkscape:zoom="0.24748737"
     inkscape:pageshadow="2"
     inkscape:pageopacity="0.0"
     borderopacity="1.0"
     bordercolor="#666666"
     pagecolor="#ffffff"
     id="base"
     inkscape:snap-global="true"
     fit-margin-top="0"
     fit-margin-left="0"
     fit-margin-right="0"
     fit-margin-bottom="0" />
  <metadata
     id="metadata5">
    <rdf:RDF>
      <cc:Work
         rdf:about="">
        <dc:format>image/svg+xml</dc:format>
        <dc:type
           rdf:resource="http://purl.org/dc/dcmitype/StillImage" />
        <dc:title />
      </cc:Work>
    </rdf:RDF>
  </metadata>
  <g
     id="layer1"
     inkscape:groupmode="layer"
     inkscape:label="Ebene 1"
     transform="translate(1.8646678,-8.9100209)">
    <rect
       inkscape:export-ydpi="70"
       inkscape:export-xdpi="70"
       style="fill:#ffff00;fill-opacity:0.436997;stroke:none;stroke-width:2.14837"
       id="rect842-1"
       width="238.125"
       height="157"
       x="282.86914"
       y="-1.7807552" />
    <rect
       inkscape:export-ydpi="70"
       inkscape:export-xdpi="70"
       y="-1.7807552"
       x="-288.37759"
       height="157"
       width="238.125"
       id="rect842"
       style="fill:#ffff00;fill-opacity:0.428954;stroke:none;stroke-width:2.14837" />
    <g
       transform="translate(0,-239.7228)"
       id="g855"
       inkscape:export-xdpi="70"
       inkscape:export-ydpi="70">
      <path
         d="m 297.86165,257.40086 -0.64957,0.64958 -0.64906,0.64957 v 6.49418 6.49417 h 0.92604 0.92604 v -6.21771 -6.2177 h 1.19063 1.19062 v 4.23333 4.23333 h 0.92604 0.92604 v -4.24832 -4.24883 l 1.12448,0.0816 1.12448,0.0811 0.0729,4.16719 0.0729,4.16718 h 0.91932 0.91933 v -4.23333 -4.23333 h 1.05833 1.05833 v 4.23333 4.23333 h 0.92605 0.92604 v -4.23333 -4.23333 h 1.19062 1.19063 v 4.23333 4.23333 h 0.92605 0.92604 v -4.23333 -4.23333 h 1.19062 1.19063 v 6.2177 6.21771 h 0.92603 l 0.92605,5.3e-4 v -6.23056 c 0,-6.71951 -0.14664,-7.55732 -1.37872,-7.88737 -0.33326,-0.0892 -4.98699,-0.16388 -10.3415,-0.16588 z m 15.41198,16.66875 -0.14883,0.7276 c -0.0818,0.40018 -0.50854,2.89264 -0.94826,5.53817 -0.89973,5.41306 -0.93857,5.5564 -1.60456,5.91282 -0.63526,0.33995 -4.64546,0.3309 -5.28598,-0.0119 -0.27635,-0.14788 -0.62711,-0.71343 -0.77928,-1.25676 -0.22957,-0.81967 -1.85829,-10.24347 -1.85829,-10.7518 0,-0.20795 -6.04256,-0.1974 -6.82387,0.0119 -1.31406,0.35202 -1.37821,0.89091 -1.37821,11.54245 0,6.00161 0.11338,10.49923 0.28835,11.44582 0.35608,1.92615 1.11993,3.45884 3.1285,6.27662 1.73862,2.43906 2.21574,3.44167 2.66288,5.59552 0.31375,1.51134 0.95783,2.27583 1.91668,2.27583 0.42449,0 0.47026,0.30887 0.47026,3.175 v 3.175 h 5.02708 5.02708 v -3.14193 -3.14192 l 0.7824,-0.15607 c 0.82416,-0.16483 1.59885,-1.26749 1.59885,-2.27531 0,-1.0825 1.03422,-3.21295 2.76419,-5.69423 1.92305,-2.75822 2.69959,-4.29892 3.04219,-6.03477 0.34789,-1.76276 0.33464,-21.2122 -0.015,-21.97954 -0.45731,-1.00369 -1.33368,-1.23248 -4.72477,-1.23248 z m 42.5447,30.1439 c -1.99366,-0.0126 -5.35418,0.7658 -7.93233,2.00608 -2.6153,1.25814 -6.03654,4.65957 -7.39646,7.35355 -1.37461,2.72313 -2.04586,5.09237 -2.70941,9.56221 -1.07685,7.25437 -3.7047,11.50767 -8.60514,13.92938 -1.35533,0.66978 -2.20952,0.80935 -4.98679,0.81235 -2.98663,0.003 -3.55439,-0.10314 -5.21621,-0.9772 -2.37341,-1.24835 -4.32778,-3.01448 -5.66426,-5.11958 -1.13554,-1.78863 -2.17248,-4.88376 -2.17248,-6.48384 v -0.99426 h -2.99878 c -2.8763,0 -2.99806,0.0324 -2.99206,0.79375 0.0136,1.76691 1.11124,5.86234 2.1239,7.92458 2.66515,5.42746 7.61178,9.3098 13.56817,10.64897 h 5.2e-4 c 2.12664,0.47813 4.66918,0.43291 7.32667,-0.13023 7.39657,-1.56736 13.50069,-8.28451 14.91642,-16.41502 1.24768,-7.16546 1.52402,-8.37976 2.26446,-9.95391 1.8078,-3.84332 5.08072,-6.25377 9.54773,-7.03213 1.25444,-0.21858 2.39736,-0.57397 2.5399,-0.78962 0.31396,-0.47499 0.3546,-3.81806 0.0558,-4.59661 -0.13944,-0.36334 -0.76349,-0.53274 -1.66969,-0.53847 z m -52.34979,14.65078 v 1.32292 h 8.88266 v -1.32292 z m 1.18132,2.64584 v 1.41696 h 6.52002 v -1.41696 z"
         style="fill:#00ff00;fill-opacity:1;stroke:#000000;stroke-width:1.2;stroke-miterlimit:4;stroke-dasharray:none;stroke-opacity:1"
         id="path873-6-3"
         inkscape:export-xdpi="70"
         inkscape:export-ydpi="70" />
      <path
         id="path873-5"
         style="fill:#00ff00;fill-opacity:1;stroke:#000000;stroke-width:1.2;stroke-miterlimit:4;stroke-dasharray:none;stroke-opacity:1"
         d="m 506.0016,357.36111 0.64957,-0.64957 0.64906,-0.64957 v -6.49419 -6.49417 h -0.92604 -0.92604 v 6.21771 6.21771 h -1.19063 -1.19062 v -4.23334 -4.23333 h -0.92604 -0.92604 v 4.24832 4.24883 l -1.12448,-0.0816 -1.12448,-0.0811 -0.0729,-4.16719 -0.0729,-4.16718 h -0.91932 -0.91933 v 4.23333 4.23333 h -1.05833 -1.05833 v -4.23333 -4.23333 h -0.92605 -0.92604 v 4.23333 4.23334 h -1.19062 -1.19063 v -4.23334 -4.23333 h -0.92604 -0.92604 v 4.23333 4.23334 h -1.19063 -1.19062 v -6.21771 -6.21771 h -0.92604 l -0.92604,-5.3e-4 v 6.23055 c 0,6.71952 0.14664,7.55733 1.37872,7.88738 0.33325,0.0892 4.98698,0.16388 10.34149,0.16588 z m -15.41197,-16.66875 0.14882,-0.7276 c 0.0818,-0.40018 0.50854,-2.89264 0.94826,-5.53817 0.89973,-5.41306 0.93857,-5.5564 1.60456,-5.91282 0.63526,-0.33995 4.64546,-0.3309 5.28598,0.0119 0.27635,0.14789 0.62711,0.71344 0.77928,1.25677 0.22957,0.81967 1.85829,10.24347 1.85829,10.7518 0,0.20795 6.04256,0.1974 6.82387,-0.0119 1.31406,-0.35201 1.37821,-0.8909 1.37821,-11.54244 0,-6.00161 -0.11338,-10.49923 -0.28835,-11.44582 -0.35608,-1.92615 -1.11993,-3.45884 -3.1285,-6.27662 -1.73862,-2.43906 -2.21574,-3.44167 -2.66288,-5.59552 -0.31375,-1.51134 -0.95783,-2.27583 -1.91668,-2.27583 -0.42449,0 -0.47026,-0.30887 -0.47026,-3.175 v -3.175 h -5.02708 -5.02708 v 3.14193 3.14192 l -0.78239,0.15607 c -0.82417,0.16483 -1.59886,1.26749 -1.59886,2.27531 0,1.0825 -1.03422,3.21295 -2.76418,5.69423 -1.92305,2.75822 -2.69959,4.29892 -3.04219,6.03477 -0.3479,1.76276 -0.33464,21.2122 0.015,21.97954 0.45731,1.00369 1.33368,1.23248 4.72477,1.23248 z m -42.54469,-30.1439 c 1.99364,0.0126 5.35416,-0.7658 7.93231,-2.00608 2.61531,-1.25814 6.03655,-4.65957 7.39646,-7.35355 1.37461,-2.72313 2.04586,-5.09237 2.70941,-9.56221 1.07685,-7.25437 3.7047,-11.50767 8.60515,-13.92938 1.35533,-0.66978 2.20951,-0.80935 4.98679,-0.81235 2.98662,-0.003 3.55439,0.10314 5.2162,0.9772 2.37342,1.24835 4.32779,3.01448 5.66426,5.11958 1.13554,1.78863 2.17248,4.88376 2.17248,6.48384 v 0.99426 h 2.99878 c 2.8763,0 2.99806,-0.0324 2.99206,-0.79375 -0.0136,-1.76691 -1.11124,-5.86234 -2.1239,-7.92458 -2.66515,-5.42746 -7.61177,-9.3098 -13.56816,-10.64897 h -5.3e-4 c -2.12663,-0.47813 -4.66917,-0.43291 -7.32667,0.13023 -7.39656,1.56736 -13.50068,8.28451 -14.91642,16.41502 -1.24767,7.16546 -1.52402,8.37976 -2.26446,9.95391 -1.80779,3.84332 -5.08071,6.25377 -9.54773,7.03213 -1.25444,0.21858 -2.39736,0.57397 -2.53989,0.78962 -0.31396,0.47499 -0.3546,3.81806 -0.0558,4.59661 0.13944,0.36334 0.76348,0.53274 1.66968,0.53847 z m 52.34977,-14.65078 v -1.32292 h -8.88266 v 1.32292 z m -1.18132,-2.64584 v -1.41696 h -6.52002 v 1.41696 z"
         inkscape:export-xdpi="70"
         inkscape:export-ydpi="70" />
      <circle
         style="fill:#000000;fill-opacity:1;stroke-width:2.64583"
         id="path899-5"
         cx="401.43881"
         cy="314.06271"
         r="48.643055"
         inkscape:export-xdpi="70"
         inkscape:export-ydpi="70" />
      <circle
         r="40.894547"
         cy="314.06271"
         cx="401.43881"
         id="path899-0-4"
         style="fill:#00ff00;fill-opacity:1;stroke-width:2.22437"
         inkscape:export-xdpi="70"
         inkscape:export-ydpi="70" />
      <path
         d="m 422.29966,291.83416 -28.72619,28.7262 -12.99529,-12.99528 -7.86558,7.86557 12.99529,12.99528 7.86558,7.86534 7.86533,-7.86534 28.7262,-28.72619 z"
         style="fill:#ffffff;fill-opacity:1;stroke:#000000;stroke-width:1.19692;stroke-opacity:1"
         id="rect1004"
         inkscape:export-xdpi="70"
         inkscape:export-ydpi="70" />
    </g>
    <g
       transform="translate(-287.58202,1.0690785)"
       id="g848"
       inkscape:export-xdpi="70"
       inkscape:export-ydpi="70">
      <path
         d="m 222.33688,116.56923 0.64957,-0.64958 0.64906,-0.64957 v -6.49418 -6.49417 h -0.92604 -0.92604 v 6.21771 6.2177 h -1.19063 -1.19062 v -4.23333 -4.23333 h -0.92604 -0.92604 v 4.24832 4.24883 l -1.12448,-0.0816 -1.12448,-0.0811 -0.0729,-4.16719 -0.0729,-4.16718 h -0.91932 -0.91933 v 4.23333 4.23333 h -1.05833 -1.05833 v -4.23333 -4.23333 h -0.92605 -0.92604 v 4.23333 4.23333 h -1.19062 -1.19063 v -4.23333 -4.23333 h -0.92604 -0.92604 v 4.23333 4.23333 h -1.19063 -1.19062 v -6.2177 -6.21771 h -0.92604 l -0.92604,-5.2e-4 v 6.23055 c 0,6.71951 0.14664,7.55732 1.37872,7.88737 0.33325,0.0892 4.98698,0.16388 10.34149,0.16588 z m -15.41197,-16.668752 0.14882,-0.7276 c 0.0818,-0.40018 0.50854,-2.89264 0.94826,-5.53817 0.89973,-5.41306 0.93857,-5.5564 1.60456,-5.91282 0.63526,-0.33995 4.64546,-0.3309 5.28598,0.0119 0.27635,0.14789 0.62711,0.71344 0.77928,1.25677 0.22957,0.81967 1.85829,10.24347 1.85829,10.7518 0,0.20795 6.04256,0.1974 6.82387,-0.0119 1.31406,-0.35201 1.37821,-0.8909 1.37821,-11.54244 0,-6.00161 -0.11338,-10.49923 -0.28835,-11.44582 -0.35608,-1.92615 -1.11993,-3.45884 -3.1285,-6.27662 -1.73862,-2.43906 -2.21574,-3.44167 -2.66288,-5.59552 -0.31375,-1.51134 -0.95783,-2.27583 -1.91668,-2.27583 -0.42449,0 -0.47026,-0.30887 -0.47026,-3.175 v -3.175 h -5.02708 -5.02708 v 3.14193 3.14192 l -0.78239,0.15607 c -0.82417,0.16483 -1.59886,1.26749 -1.59886,2.27531 0,1.0825 -1.03422,3.21295 -2.76418,5.69423 -1.92305,2.75822 -2.69959,4.29892 -3.04219,6.03477 -0.3479,1.76276 -0.33464,21.2122 0.015,21.97954 0.45731,1.00369 1.33368,1.23248 4.72477,1.23248 z m -42.54469,-30.1439 c 1.99364,0.0126 5.35416,-0.7658 7.93231,-2.00608 2.61531,-1.25814 6.03655,-4.65957 7.39646,-7.35355 1.37461,-2.72313 2.04586,-5.09237 2.70941,-9.56221 1.07685,-7.25437 3.7047,-11.50767 8.60515,-13.92938 1.35533,-0.66978 2.20951,-0.80935 4.98679,-0.81235 2.98662,-0.003 3.55439,0.10314 5.2162,0.9772 2.37342,1.24835 4.32779,3.01448 5.66426,5.11958 1.13554,1.78863 2.17248,4.88376 2.17248,6.48384 v 0.99426 h 2.99878 c 2.8763,0 2.99806,-0.0324 2.99206,-0.79375 -0.0136,-1.76691 -1.11124,-5.86234 -2.1239,-7.92458 -2.66515,-5.42746 -7.61177,-9.3098 -13.56816,-10.64897 h -5.2e-4 c -2.12663,-0.47813 -4.66917,-0.43291 -7.32667,0.13023 -7.39656,1.56736 -13.50068,8.28451 -14.91642,16.41502 -1.24767,7.16546 -1.52402,8.37976 -2.26446,9.95391 -1.80779,3.84332 -5.08071,6.25377 -9.54773,7.03213 -1.25444,0.21858 -2.39736,0.57397 -2.53989,0.78962 -0.31396,0.47499 -0.3546,3.81806 -0.0558,4.59661 0.13944,0.36334 0.76348,0.53274 1.66968,0.53847 z m 52.34977,-14.65078 v -1.32292 h -8.88266 v 1.32292 z m -1.18132,-2.64584 v -1.41696 h -6.52002 v 1.41696 z"
         style="fill:#ff0000;fill-opacity:1;stroke:#000000;stroke-width:1.2;stroke-miterlimit:4;stroke-dasharray:none;stroke-opacity:1"
         id="path873"
         inkscape:export-xdpi="70"
         inkscape:export-ydpi="70" />
      <path
         id="path873-6"
         style="fill:#ff0000;fill-opacity:1;stroke:#000000;stroke-width:1.2;stroke-miterlimit:4;stroke-dasharray:none;stroke-opacity:1"
         d="m 14.196935,16.608979 -0.64957,0.64958 -0.64906,0.649571 v 6.49418 6.494168 h 0.92604 0.92604 v -6.217708 -6.2177 h 1.19063 1.19062 v 4.23333 4.23333 h 0.92604 0.92604 v -4.24832 -4.24883 l 1.12448,0.0816 1.12448,0.0811 0.0729,4.16719 0.0729,4.16718 h 0.91932 0.91933 v -4.23333 -4.23333 h 1.05833 1.05833 v 4.23333 4.23333 h 0.92605 0.92604 v -4.23333 -4.23333 h 1.19062 1.19063 v 4.23333 4.23333 h 0.92604 0.92604 v -4.23333 -4.23333 h 1.19063 1.19062 v 6.2177 6.217708 h 0.92604 l 0.92604,5.3e-4 V 24.66637 c 0,-6.71951 -0.14664,-7.557321 -1.37872,-7.887371 -0.33325,-0.0892 -4.98698,-0.16388 -10.34149,-0.16588 z m 15.41197,16.668749 -0.14882,0.7276 c -0.0818,0.40018 -0.50854,2.89264 -0.94826,5.53817 -0.89973,5.41306 -0.93857,5.5564 -1.60456,5.91282 -0.63526,0.33995 -4.64546,0.3309 -5.28598,-0.0119 -0.27635,-0.14788 -0.62711,-0.71343 -0.77928,-1.25676 -0.22957,-0.81967 -1.85829,-10.24347 -1.85829,-10.7518 0,-0.20795 -6.04256,-0.1974 -6.82387,0.0119 -1.31406,0.35201 -1.37821,0.8909 -1.37821,11.54244 0,6.00161 0.11338,10.49923 0.28835,11.44582 0.35608,1.92615 1.11993,3.45884 3.1285,6.27662 1.73862,2.43906 2.21574,3.44167 2.66288,5.59552 0.31375,1.51134 0.95783,2.27583 1.91668,2.27583 0.42449,0 0.47026,0.30887 0.47026,3.175 v 3.175 h 5.02708 5.02708 v -3.14193 -3.14192 l 0.78239,-0.15607 c 0.82417,-0.16483 1.59886,-1.26749 1.59886,-2.27531 0,-1.0825 1.03422,-3.21295 2.76418,-5.69423 1.92305,-2.75822 2.69959,-4.29892 3.04219,-6.03477 0.3479,-1.76276 0.33465,-21.2122 -0.015,-21.97954 -0.45731,-1.00369 -1.33368,-1.23248 -4.72477,-1.23248 z m 42.5447,30.1439 c -1.99365,-0.0126 -5.35417,0.7658 -7.93232,2.00608 -2.6153,1.25814 -6.03655,4.65957 -7.39646,7.35355 -1.37461,2.72313 -2.04586,5.09237 -2.70941,9.56221 -1.07685,7.25437 -3.7047,11.50767 -8.60514,13.92938 -1.35534,0.66978 -2.20952,0.80935 -4.98679,0.81235 -2.98663,0.003 -3.5544,-0.10314 -5.21621,-0.9772 -2.37342,-1.24835 -4.32779,-3.01448 -5.66426,-5.11958 -1.13554,-1.78863 -2.17248,-4.88376 -2.17248,-6.48384 v -0.99426 h -2.99878 c -2.8763,0 -2.99806,0.0324 -2.99206,0.79375 0.0136,1.76691 1.11124,5.86234 2.1239,7.92458 2.66515,5.42746 7.61177,9.309802 13.56816,10.648972 h 5.3e-4 c 2.12663,0.47813 4.66917,0.43291 7.32667,-0.13023 7.39656,-1.56736 13.50068,-8.284512 14.91642,-16.415022 1.24767,-7.16546 1.52402,-8.37976 2.26446,-9.95391 1.8078,-3.84332 5.08071,-6.25377 9.54773,-7.03213 1.25444,-0.21858 2.39736,-0.57397 2.5399,-0.78962 0.31396,-0.47499 0.3546,-3.81806 0.0558,-4.59661 -0.13944,-0.36334 -0.76349,-0.53274 -1.66969,-0.53847 z m -52.34978,14.65078 v 1.32292 h 8.88266 v -1.32292 z m 1.18132,2.64584 v 1.41696 h 6.52002 v -1.41696 z"
         inkscape:export-xdpi="70"
         inkscape:export-ydpi="70" />
      <circle
         r="48.643055"
         cy="73.270836"
         cx="117.77408"
         id="path899"
         style="fill:#000000;fill-opacity:1;stroke-width:2.64583"
         inkscape:export-xdpi="70"
         inkscape:export-ydpi="70" />
      <circle
         style="fill:#ff0000;fill-opacity:1;stroke-width:2.22437"
         id="path899-0"
         cx="117.77408"
         cy="73.270836"
         r="40.894547"
         inkscape:export-xdpi="70"
         inkscape:export-ydpi="70" />
      <path
         d="m 94.339563,57.159641 16.111197,16.111196 -16.111199,16.111197 7.323319,7.323315 16.1112,-16.111198 16.11119,16.111196 7.32332,-7.323313 -16.1112,-16.111196 16.1112,-16.111197 -7.32332,-7.323314 -16.11119,16.111196 -16.1112,-16.111196 z"
         style="fill:#ffffff;fill-opacity:1;stroke:#000000;stroke-width:1.70876;stroke-opacity:1"
         id="rect936"
         inkscape:export-xdpi="70"
         inkscape:export-ydpi="70" />
    </g>
    <text
       xml:space="preserve"
       style="font-style:normal;font-weight:normal;font-size:20.7538px;line-height:1.25;font-family:sans-serif;fill:#000000;fill-opacity:1;stroke:none;stroke-width:0.518846"
       x="-38.142391"
       y="-85.994293"
       id="text859"><tspan
         sodipodi:role="line"
         id="tspan857"
         x="-38.142391"
         y="-85.994293"
         style="stroke-width:0.518846">Icons exportieren mit unsichtbaren Rahmen exportieren</tspan></text>
  </g>
</svg>
