<?xml version="1.0" encoding="UTF-8" standalone="no"?>
<!-- Created with Inkscape (http://www.inkscape.org/) -->

<svg
   xmlns:dc="http://purl.org/dc/elements/1.1/"
   xmlns:cc="http://creativecommons.org/ns#"
   xmlns:rdf="http://www.w3.org/1999/02/22-rdf-syntax-ns#"
   xmlns:svg="http://www.w3.org/2000/svg"
   xmlns="http://www.w3.org/2000/svg"
   xmlns:sodipodi="http://sodipodi.sourceforge.net/DTD/sodipodi-0.dtd"
   xmlns:inkscape="http://www.inkscape.org/namespaces/inkscape"
   version="1.1"
   width="46.529659"
   height="45.455944"
   id="svg25946"
   inkscape:version="0.92.5 (2060ec1f9f, 2020-04-08)"
   sodipodi:docname="Wireless.svg">
  <sodipodi:namedview
     pagecolor="#ffffff"
     bordercolor="#666666"
     borderopacity="1"
     objecttolerance="10"
     gridtolerance="10"
     guidetolerance="10"
     inkscape:pageopacity="0"
     inkscape:pageshadow="2"
     inkscape:window-width="1920"
     inkscape:window-height="918"
     id="namedview7"
     showgrid="false"
     fit-margin-top="0.2"
     fit-margin-bottom="0.2"
     fit-margin-right="0.2"
     fit-margin-left="0.2"
     inkscape:zoom="5.9088898"
     inkscape:cx="-65.836027"
     inkscape:cy="5.8858816"
     inkscape:window-x="0"
     inkscape:window-y="0"
     inkscape:window-maximized="1"
     inkscape:current-layer="layer1" />
  <defs
     id="defs25948">
    <mask
       maskUnits="userSpaceOnUse"
       id="mask879">
      <circle
         style="opacity:1;vector-effect:none;fill:#aedf38;fill-opacity:1;stroke:#000000;stroke-width:0.30000001;stroke-linecap:round;stroke-linejoin:round;stroke-miterlimit:4;stroke-dasharray:none;stroke-dashoffset:0;stroke-opacity:1;paint-order:normal"
         id="circle881"
         cx="192.13631"
         cy="137.51428"
         r="22.377972" />
    </mask>
    <mask
       maskUnits="userSpaceOnUse"
       id="mask900">
      <path
         d="m 191.60276,151.60417 c -0.88998,-0.11242 -1.71958,-0.53285 -2.3629,-1.19748 -0.70672,-0.73013 -1.08441,-1.59466 -1.13646,-2.60135 -0.10034,-1.94032 1.19559,-3.6482 3.12746,-4.12166 0.25808,-0.0632 0.39517,-0.0756 0.85699,-0.0772 0.73961,-0.003 1.23351,0.10355 1.79177,0.38468 1.36993,0.68989 2.19721,1.95947 2.25577,3.46182 0.0584,1.49611 -0.6769,2.84297 -1.98216,3.63108 -0.72803,0.43958 -1.66887,0.63141 -2.55047,0.52005 z m -4.17173,-9.02023 c -0.17784,-0.0883 -1.74372,-1.65415 -1.82858,-1.82863 -0.0562,-0.11564 -0.0632,-0.18498 -0.0538,-0.5336 0.009,-0.33066 0.0227,-0.42362 0.079,-0.53195 0.0792,-0.15237 0.69929,-0.76002 1.14201,-1.11915 0.9735,-0.78966 2.25303,-1.41157 3.47485,-1.68895 0.67425,-0.15306 1.07468,-0.19417 1.89184,-0.19417 0.81716,0 1.21759,0.0411 1.89183,0.19417 1.22172,0.27735 2.50042,0.89883 3.47502,1.68895 0.50002,0.40537 1.08674,0.9899 1.14847,1.14419 0.0686,0.17147 0.0989,0.82861 0.0457,0.99366 -0.0512,0.15892 -1.66192,1.78306 -1.86136,1.8768 -0.18063,0.0849 -0.49354,0.087 -0.67517,0.005 -0.0773,-0.0351 -0.21654,-0.1559 -0.33957,-0.29459 -0.28553,-0.32189 -0.73229,-0.6877 -1.13852,-0.93221 -1.80815,-1.08833 -4.09953,-0.908 -5.72767,0.45076 -0.16236,0.13551 -0.38905,0.35215 -0.50374,0.48145 -0.12303,0.13869 -0.26224,0.25947 -0.33955,0.29459 -0.18055,0.082 -0.50945,0.0792 -0.68081,-0.006 z m -4.70534,-4.68238 c -0.16939,-0.0859 -1.83229,-1.76511 -1.87444,-1.89284 -0.0194,-0.0587 -0.0298,-0.2731 -0.0238,-0.49057 0.008,-0.31468 0.0231,-0.41034 0.078,-0.5161 0.13045,-0.25095 1.32042,-1.35477 2.09803,-1.94614 1.24043,-0.94334 2.918,-1.81752 4.41926,-2.30287 3.37763,-1.09197 7.06123,-0.97537 10.32445,0.32681 1.21103,0.48326 2.53835,1.22795 3.52206,1.97606 0.77762,0.59137 1.96759,1.69519 2.09804,1.94614 0.0549,0.10576 0.0694,0.20142 0.078,0.5161 0.006,0.21799 -0.005,0.43183 -0.0239,0.49082 -0.0455,0.13807 -1.74216,1.83997 -1.89996,1.90592 -0.14703,0.0614 -0.45859,0.0594 -0.61704,-0.004 -0.085,-0.034 -0.23409,-0.16608 -0.45427,-0.40243 -1.15824,-1.24327 -2.83773,-2.30732 -4.57085,-2.89591 -1.2604,-0.42805 -2.37255,-0.609 -3.7429,-0.609 -1.37035,0 -2.4825,0.18095 -3.7429,0.609 -1.73313,0.58859 -3.41262,1.65264 -4.57086,2.89591 -0.22018,0.23635 -0.36926,0.36843 -0.45427,0.40243 -0.17077,0.0683 -0.49886,0.0635 -0.64264,-0.009 z m -4.73767,-4.75731 c -0.18768,-0.0854 -1.77335,-1.69111 -1.82334,-1.84634 -0.0222,-0.069 -0.0328,-0.26949 -0.0264,-0.50126 0.008,-0.31441 0.0231,-0.41035 0.0779,-0.51564 0.0995,-0.19126 1.1228,-1.1758 1.8851,-1.81373 3.13541,-2.62389 6.89193,-4.30511 10.89826,-4.8775 1.22705,-0.17531 1.5632,-0.19636 3.13689,-0.19636 1.5737,0 1.90984,0.0211 3.13689,0.19636 4.00632,0.57239 7.76285,2.25361 10.89825,4.8775 0.7623,0.63793 1.78558,1.62247 1.8851,1.81373 0.0548,0.10529 0.0693,0.20123 0.0779,0.51564 0.006,0.23177 -0.005,0.43227 -0.0264,0.50126 -0.0533,0.16554 -1.63816,1.76286 -1.83409,1.84853 -0.18775,0.0821 -0.49383,0.0803 -0.67935,-0.004 -0.0898,-0.0407 -0.32898,-0.2481 -0.66296,-0.57467 -1.4201,-1.38851 -2.81972,-2.39492 -4.54881,-3.27087 -2.13917,-1.08368 -4.25777,-1.68111 -6.79119,-1.91509 -0.94585,-0.0873 -2.64409,-0.0471 -3.73517,0.0885 -2.08404,0.25911 -4.07655,0.86908 -5.96655,1.82653 -1.72909,0.87594 -3.12871,1.88235 -4.54881,3.27087 -0.33399,0.32656 -0.57325,0.53396 -0.66295,0.57466 -0.18229,0.0827 -0.51031,0.0835 -0.69012,0.002 z"
         id="path902"
         style="fill:#ffffff;stroke:none"
         inkscape:connector-curvature="0" />
    </mask>
    <mask
       maskUnits="userSpaceOnUse"
       id="mask900-2">
      <path
         d="m 191.60276,151.60417 c -0.88998,-0.11242 -1.71958,-0.53285 -2.3629,-1.19748 -0.70672,-0.73013 -1.08441,-1.59466 -1.13646,-2.60135 -0.10034,-1.94032 1.19559,-3.6482 3.12746,-4.12166 0.25808,-0.0632 0.39517,-0.0756 0.85699,-0.0772 0.73961,-0.003 1.23351,0.10355 1.79177,0.38468 1.36993,0.68989 2.19721,1.95947 2.25577,3.46182 0.0584,1.49611 -0.6769,2.84297 -1.98216,3.63108 -0.72803,0.43958 -1.66887,0.63141 -2.55047,0.52005 z m -4.17173,-9.02023 c -0.17784,-0.0883 -1.74372,-1.65415 -1.82858,-1.82863 -0.0562,-0.11564 -0.0632,-0.18498 -0.0538,-0.5336 0.009,-0.33066 0.0227,-0.42362 0.079,-0.53195 0.0792,-0.15237 0.69929,-0.76002 1.14201,-1.11915 0.9735,-0.78966 2.25303,-1.41157 3.47485,-1.68895 0.67425,-0.15306 1.07468,-0.19417 1.89184,-0.19417 0.81716,0 1.21759,0.0411 1.89183,0.19417 1.22172,0.27735 2.50042,0.89883 3.47502,1.68895 0.50002,0.40537 1.08674,0.9899 1.14847,1.14419 0.0686,0.17147 0.0989,0.82861 0.0457,0.99366 -0.0512,0.15892 -1.66192,1.78306 -1.86136,1.8768 -0.18063,0.0849 -0.49354,0.087 -0.67517,0.005 -0.0773,-0.0351 -0.21654,-0.1559 -0.33957,-0.29459 -0.28553,-0.32189 -0.73229,-0.6877 -1.13852,-0.93221 -1.80815,-1.08833 -4.09953,-0.908 -5.72767,0.45076 -0.16236,0.13551 -0.38905,0.35215 -0.50374,0.48145 -0.12303,0.13869 -0.26224,0.25947 -0.33955,0.29459 -0.18055,0.082 -0.50945,0.0792 -0.68081,-0.006 z m -4.70534,-4.68238 c -0.16939,-0.0859 -1.83229,-1.76511 -1.87444,-1.89284 -0.0194,-0.0587 -0.0298,-0.2731 -0.0238,-0.49057 0.008,-0.31468 0.0231,-0.41034 0.078,-0.5161 0.13045,-0.25095 1.32042,-1.35477 2.09803,-1.94614 1.24043,-0.94334 2.918,-1.81752 4.41926,-2.30287 3.37763,-1.09197 7.06123,-0.97537 10.32445,0.32681 1.21103,0.48326 2.53835,1.22795 3.52206,1.97606 0.77762,0.59137 1.96759,1.69519 2.09804,1.94614 0.0549,0.10576 0.0694,0.20142 0.078,0.5161 0.006,0.21799 -0.005,0.43183 -0.0239,0.49082 -0.0455,0.13807 -1.74216,1.83997 -1.89996,1.90592 -0.14703,0.0614 -0.45859,0.0594 -0.61704,-0.004 -0.085,-0.034 -0.23409,-0.16608 -0.45427,-0.40243 -1.15824,-1.24327 -2.83773,-2.30732 -4.57085,-2.89591 -1.2604,-0.42805 -2.37255,-0.609 -3.7429,-0.609 -1.37035,0 -2.4825,0.18095 -3.7429,0.609 -1.73313,0.58859 -3.41262,1.65264 -4.57086,2.89591 -0.22018,0.23635 -0.36926,0.36843 -0.45427,0.40243 -0.17077,0.0683 -0.49886,0.0635 -0.64264,-0.009 z m -4.73767,-4.75731 c -0.18768,-0.0854 -1.77335,-1.69111 -1.82334,-1.84634 -0.0222,-0.069 -0.0328,-0.26949 -0.0264,-0.50126 0.008,-0.31441 0.0231,-0.41035 0.0779,-0.51564 0.0995,-0.19126 1.1228,-1.1758 1.8851,-1.81373 3.13541,-2.62389 6.89193,-4.30511 10.89826,-4.8775 1.22705,-0.17531 1.5632,-0.19636 3.13689,-0.19636 1.5737,0 1.90984,0.0211 3.13689,0.19636 4.00632,0.57239 7.76285,2.25361 10.89825,4.8775 0.7623,0.63793 1.78558,1.62247 1.8851,1.81373 0.0548,0.10529 0.0693,0.20123 0.0779,0.51564 0.006,0.23177 -0.005,0.43227 -0.0264,0.50126 -0.0533,0.16554 -1.63816,1.76286 -1.83409,1.84853 -0.18775,0.0821 -0.49383,0.0803 -0.67935,-0.004 -0.0898,-0.0407 -0.32898,-0.2481 -0.66296,-0.57467 -1.4201,-1.38851 -2.81972,-2.39492 -4.54881,-3.27087 -2.13917,-1.08368 -4.25777,-1.68111 -6.79119,-1.91509 -0.94585,-0.0873 -2.64409,-0.0471 -3.73517,0.0885 -2.08404,0.25911 -4.07655,0.86908 -5.96655,1.82653 -1.72909,0.87594 -3.12871,1.88235 -4.54881,3.27087 -0.33399,0.32656 -0.57325,0.53396 -0.66295,0.57466 -0.18229,0.0827 -0.51031,0.0835 -0.69012,0.002 z"
         id="path902-2"
         style="fill:#ffffff;stroke:none"
         inkscape:connector-curvature="0" />
    </mask>
    <mask
       maskUnits="userSpaceOnUse"
       id="mask879-6">
      <circle
         style="opacity:1;vector-effect:none;fill:#aedf38;fill-opacity:1;stroke:#000000;stroke-width:0.30000001;stroke-linecap:round;stroke-linejoin:round;stroke-miterlimit:4;stroke-dasharray:none;stroke-dashoffset:0;stroke-opacity:1;paint-order:normal"
         id="circle881-7"
         cx="192.13631"
         cy="137.51428"
         r="22.377972" />
    </mask>
    <mask
       maskUnits="userSpaceOnUse"
       id="mask1027">
      <path
         d="m 61.50009,162.31618 c -0.88998,-0.11242 -1.71958,-0.53285 -2.3629,-1.19748 -0.70672,-0.73013 -1.08441,-1.59466 -1.13646,-2.60135 -0.10034,-1.94032 1.19559,-3.6482 3.12746,-4.12166 0.25808,-0.0632 0.39517,-0.0756 0.85699,-0.0772 0.73961,-0.003 1.23351,0.10355 1.79177,0.38468 1.36993,0.68989 2.19721,1.95947 2.25577,3.46182 0.0584,1.49611 -0.6769,2.84297 -1.98216,3.63108 -0.72803,0.43958 -1.66887,0.63141 -2.55047,0.52005 z m -4.17173,-9.02023 c -0.17784,-0.0883 -1.74373,-1.65415 -1.82859,-1.82863 -0.0562,-0.11564 -0.0632,-0.18498 -0.0538,-0.5336 0.009,-0.33066 0.0227,-0.42362 0.079,-0.53195 0.0792,-0.15237 0.6993,-0.76002 1.14202,-1.11915 0.9735,-0.78966 2.25303,-1.41157 3.47485,-1.68895 0.67425,-0.15306 1.07468,-0.19417 1.89184,-0.19417 0.81716,0 1.21759,0.0411 1.89183,0.19417 1.22172,0.27735 2.50042,0.89883 3.47502,1.68895 0.50002,0.40537 1.08674,0.9899 1.14847,1.14419 0.0686,0.17147 0.0989,0.82861 0.0457,0.99366 -0.0512,0.15892 -1.661917,1.78306 -1.861357,1.8768 -0.18063,0.0849 -0.49354,0.087 -0.67517,0.005 -0.0773,-0.0351 -0.21654,-0.1559 -0.33957,-0.29459 -0.28553,-0.32189 -0.73229,-0.6877 -1.13852,-0.93221 -1.80815,-1.08833 -4.09953,-0.908 -5.72767,0.45076 -0.16236,0.13551 -0.38905,0.35215 -0.50374,0.48145 -0.12303,0.13869 -0.26224,0.25947 -0.33955,0.29459 -0.18055,0.082 -0.50945,0.0792 -0.68081,-0.006 z m -4.70535,-4.68238 c -0.16939,-0.0859 -1.83229,-1.76511 -1.87444,-1.89284 -0.0194,-0.0587 -0.0298,-0.2731 -0.0238,-0.49057 0.008,-0.31468 0.0231,-0.41034 0.078,-0.5161 0.13045,-0.25095 1.32042,-1.35477 2.09803,-1.94614 1.24043,-0.94334 2.918,-1.81752 4.41927,-2.30287 3.37763,-1.09197 7.06123,-0.97537 10.32445,0.32681 1.211027,0.48326 2.538347,1.22795 3.522057,1.97606 0.77762,0.59137 1.96759,1.69519 2.09804,1.94614 0.0549,0.10576 0.0694,0.20142 0.078,0.5161 0.006,0.21799 -0.005,0.43183 -0.0239,0.49082 -0.0455,0.13807 -1.74216,1.83997 -1.89996,1.90592 -0.14703,0.0614 -0.45859,0.0594 -0.61704,-0.004 -0.085,-0.034 -0.23409,-0.16608 -0.45427,-0.40243 -1.15824,-1.24327 -2.837727,-2.30732 -4.570847,-2.89591 -1.2604,-0.42805 -2.37255,-0.609 -3.7429,-0.609 -1.37035,0 -2.4825,0.18095 -3.7429,0.609 -1.73313,0.58859 -3.41263,1.65264 -4.57087,2.89591 -0.22018,0.23635 -0.36926,0.36843 -0.45427,0.40243 -0.17077,0.0683 -0.49886,0.0635 -0.64264,-0.009 z m -4.73767,-4.75731 c -0.18768,-0.0854 -1.77335,-1.69111 -1.82334,-1.84634 -0.0222,-0.069 -0.0328,-0.26949 -0.0264,-0.50126 0.008,-0.31441 0.0231,-0.41035 0.0779,-0.51564 0.0995,-0.19126 1.1228,-1.1758 1.8851,-1.81373 3.13541,-2.62389 6.89193,-4.30511 10.89827,-4.8775 1.22705,-0.17531 1.5632,-0.19636 3.13689,-0.19636 1.5737,0 1.90984,0.0211 3.13689,0.19636 4.006317,0.57239 7.762847,2.25361 10.898247,4.8775 0.7623,0.63793 1.78558,1.62247 1.8851,1.81373 0.0548,0.10529 0.0693,0.20123 0.0779,0.51564 0.006,0.23177 -0.005,0.43227 -0.0264,0.50126 -0.0533,0.16554 -1.63816,1.76286 -1.8341,1.84853 -0.18774,0.0821 -0.49382,0.0803 -0.67935,-0.004 -0.0898,-0.0407 -0.32897,-0.2481 -0.66296,-0.57467 -1.42009,-1.38851 -2.81971,-2.39492 -4.5488,-3.27087 -2.139167,-1.08368 -4.257767,-1.68111 -6.791197,-1.91509 -0.94584,-0.0873 -2.64408,-0.0471 -3.73516,0.0885 -2.08405,0.25911 -4.07656,0.86908 -5.96656,1.82653 -1.72909,0.87594 -3.12871,1.88235 -4.54881,3.27087 -0.33399,0.32656 -0.57325,0.53396 -0.66295,0.57466 -0.18229,0.0827 -0.51031,0.0835 -0.69012,0.002 z"
         id="path1029"
         style="fill:#0000ff;fill-opacity:1;stroke:none"
         inkscape:connector-curvature="0" />
    </mask>
  </defs>
  <metadata
     id="metadata25951">
    <rdf:RDF>
      <cc:Work
         rdf:about="">
        <dc:format>image/svg+xml</dc:format>
        <dc:type
           rdf:resource="http://purl.org/dc/dcmitype/StillImage" />
        <dc:title></dc:title>
      </cc:Work>
    </rdf:RDF>
  </metadata>
  <g
     transform="translate(-168.56828,-114.78631)"
     id="layer1">
    <circle
       style="opacity:1;vector-effect:none;fill:#aedf38;fill-opacity:1;stroke:#000000;stroke-width:0.30000001;stroke-linecap:round;stroke-linejoin:round;stroke-miterlimit:4;stroke-dasharray:none;stroke-dashoffset:0;stroke-opacity:1;paint-order:normal"
       id="path820"
       cx="192.13631"
       cy="137.51428"
       r="22.377972"
       inkscape:export-xdpi="832.44"
       inkscape:export-ydpi="832.44" />
    <path
       style="fill:#000000;fill-opacity:0.11764706;stroke:none;stroke-width:1px;stroke-linecap:butt;stroke-linejoin:miter;stroke-opacity:1"
       d="m 176.30703,131.32051 16.07747,16.22555 -3.13088,2.53855 9.40787,8.98903 4.56591,-2.08829 3.12529,-2.05297 3.29268,-3.2355 2.40429,-3.3617 2.84828,-8.39201 c -0.46946,-0.65725 -0.0122,-1.79694 -0.35299,-2.13775 l -6.59069,-7.60611 -13.87739,-4.40015 -12.86198,1.94622 z"
       id="path854"
       inkscape:connector-curvature="0"
       sodipodi:nodetypes="cccccccccccccc"
       mask="url(#mask879)"
       inkscape:export-xdpi="832.44"
       inkscape:export-ydpi="832.44" />
    <path
       d="m 191.60276,151.60417 c -0.88998,-0.11242 -1.71958,-0.53285 -2.3629,-1.19748 -0.70672,-0.73013 -1.08441,-1.59466 -1.13646,-2.60135 -0.10034,-1.94032 1.19559,-3.6482 3.12746,-4.12166 0.25808,-0.0632 0.39517,-0.0756 0.85699,-0.0772 0.73961,-0.003 1.23351,0.10355 1.79177,0.38468 1.36993,0.68989 2.19721,1.95947 2.25577,3.46182 0.0584,1.49611 -0.6769,2.84297 -1.98216,3.63108 -0.72803,0.43958 -1.66887,0.63141 -2.55047,0.52005 z m -4.17173,-9.02023 c -0.17784,-0.0883 -1.74372,-1.65415 -1.82858,-1.82863 -0.0562,-0.11564 -0.0632,-0.18498 -0.0538,-0.5336 0.009,-0.33066 0.0227,-0.42362 0.079,-0.53195 0.0792,-0.15237 0.69929,-0.76002 1.14201,-1.11915 0.9735,-0.78966 2.25303,-1.41157 3.47485,-1.68895 0.67425,-0.15306 1.07468,-0.19417 1.89184,-0.19417 0.81716,0 1.21759,0.0411 1.89183,0.19417 1.22172,0.27735 2.50042,0.89883 3.47502,1.68895 0.50002,0.40537 1.08674,0.9899 1.14847,1.14419 0.0686,0.17147 0.0989,0.82861 0.0457,0.99366 -0.0512,0.15892 -1.66192,1.78306 -1.86136,1.8768 -0.18063,0.0849 -0.49354,0.087 -0.67517,0.005 -0.0773,-0.0351 -0.21654,-0.1559 -0.33957,-0.29459 -0.28553,-0.32189 -0.73229,-0.6877 -1.13852,-0.93221 -1.80815,-1.08833 -4.09953,-0.908 -5.72767,0.45076 -0.16236,0.13551 -0.38905,0.35215 -0.50374,0.48145 -0.12303,0.13869 -0.26224,0.25947 -0.33955,0.29459 -0.18055,0.082 -0.50945,0.0792 -0.68081,-0.006 z m -4.70534,-4.68238 c -0.16939,-0.0859 -1.83229,-1.76511 -1.87444,-1.89284 -0.0194,-0.0587 -0.0298,-0.2731 -0.0238,-0.49057 0.008,-0.31468 0.0231,-0.41034 0.078,-0.5161 0.13045,-0.25095 1.32042,-1.35477 2.09803,-1.94614 1.24043,-0.94334 2.918,-1.81752 4.41926,-2.30287 3.37763,-1.09197 7.06123,-0.97537 10.32445,0.32681 1.21103,0.48326 2.53835,1.22795 3.52206,1.97606 0.77762,0.59137 1.96759,1.69519 2.09804,1.94614 0.0549,0.10576 0.0694,0.20142 0.078,0.5161 0.006,0.21799 -0.005,0.43183 -0.0239,0.49082 -0.0455,0.13807 -1.74216,1.83997 -1.89996,1.90592 -0.14703,0.0614 -0.45859,0.0594 -0.61704,-0.004 -0.085,-0.034 -0.23409,-0.16608 -0.45427,-0.40243 -1.15824,-1.24327 -2.83773,-2.30732 -4.57085,-2.89591 -1.2604,-0.42805 -2.37255,-0.609 -3.7429,-0.609 -1.37035,0 -2.4825,0.18095 -3.7429,0.609 -1.73313,0.58859 -3.41262,1.65264 -4.57086,2.89591 -0.22018,0.23635 -0.36926,0.36843 -0.45427,0.40243 -0.17077,0.0683 -0.49886,0.0635 -0.64264,-0.009 z m -4.73767,-4.75731 c -0.18768,-0.0854 -1.77335,-1.69111 -1.82334,-1.84634 -0.0222,-0.069 -0.0328,-0.26949 -0.0264,-0.50126 0.008,-0.31441 0.0231,-0.41035 0.0779,-0.51564 0.0995,-0.19126 1.1228,-1.1758 1.8851,-1.81373 3.13541,-2.62389 6.89193,-4.30511 10.89826,-4.8775 1.22705,-0.17531 1.5632,-0.19636 3.13689,-0.19636 1.5737,0 1.90984,0.0211 3.13689,0.19636 4.00632,0.57239 7.76285,2.25361 10.89825,4.8775 0.7623,0.63793 1.78558,1.62247 1.8851,1.81373 0.0548,0.10529 0.0693,0.20123 0.0779,0.51564 0.006,0.23177 -0.005,0.43227 -0.0264,0.50126 -0.0533,0.16554 -1.63816,1.76286 -1.8341,1.84853 -0.18774,0.0821 -0.49382,0.0803 -0.67935,-0.004 -0.0898,-0.0407 -0.32897,-0.2481 -0.66296,-0.57467 -1.42009,-1.38851 -2.81971,-2.39492 -4.5488,-3.27087 -2.13917,-1.08368 -4.25777,-1.68111 -6.7912,-1.91509 -0.94584,-0.0873 -2.64408,-0.0471 -3.73516,0.0885 -2.08405,0.25911 -4.07655,0.86908 -5.96655,1.82653 -1.72909,0.87594 -3.12871,1.88235 -4.54881,3.27087 -0.33399,0.32656 -0.57325,0.53396 -0.66295,0.57466 -0.18229,0.0827 -0.51031,0.0835 -0.69012,0.002 z"
       id="path26127"
       style="fill:#ffffff;stroke:none"
       inkscape:connector-curvature="0"
       inkscape:export-xdpi="832.44"
       inkscape:export-ydpi="832.44" />
    <rect
       style="opacity:1;vector-effect:none;fill:#000000;fill-opacity:0.11764706;stroke:none;stroke-width:0.30000001;stroke-linecap:round;stroke-linejoin:round;stroke-miterlimit:4;stroke-dasharray:none;stroke-dashoffset:0;stroke-opacity:1;paint-order:normal"
       id="rect883"
       width="23.454987"
       height="37.695515"
       x="168.76828"
       y="121.21473"
       mask="url(#mask900)"
       inkscape:export-xdpi="832.44"
       inkscape:export-ydpi="832.44" />
    <circle
       style="opacity:1;vector-effect:none;fill:#ff6048;fill-opacity:1;stroke:#000000;stroke-width:0.30000001;stroke-linecap:round;stroke-linejoin:round;stroke-miterlimit:4;stroke-dasharray:none;stroke-dashoffset:0;stroke-opacity:1;paint-order:normal"
       id="path820-7"
       cx="125.31223"
       cy="136.54793"
       r="22.377972"
       inkscape:export-xdpi="847.88"
       inkscape:export-ydpi="847.88" />
    <path
       transform="translate(-66.82409,-0.96635291)"
       style="fill:#000000;fill-opacity:0.11764706;stroke:none;stroke-width:1px;stroke-linecap:butt;stroke-linejoin:miter;stroke-opacity:1"
       d="m 176.30703,131.32051 16.07747,16.22555 -3.13088,2.53855 9.40787,8.98903 4.56591,-2.08829 3.12529,-2.05297 3.29268,-3.2355 2.40429,-3.3617 2.84828,-8.39201 c -0.46946,-0.65725 -0.0122,-1.79694 -0.35299,-2.13775 l -6.59069,-7.60611 -13.87739,-4.40015 -12.86198,1.94622 z"
       id="path854-0"
       inkscape:connector-curvature="0"
       sodipodi:nodetypes="cccccccccccccc"
       mask="url(#mask879-6)"
       inkscape:export-xdpi="847.88"
       inkscape:export-ydpi="847.88" />
    <path
       style="fill:#ffffff;fill-opacity:1;stroke:none"
       d="m 125.31225,122.42695 c -1.57369,0 -1.90967,0.022 -3.13672,0.19727 -4.00633,0.57239 -7.76302,2.25306 -10.89843,4.87695 -0.7623,0.63793 -1.78527,1.6232 -1.88477,1.81446 -0.0548,0.10528 -0.0701,0.20121 -0.0781,0.51562 -0.006,0.23177 0.005,0.431 0.0273,0.5 0.05,0.15523 1.63459,1.76226 1.82227,1.84766 0.17981,0.0815 0.50911,0.0807 0.6914,-0.002 0.0897,-0.0407 0.32812,-0.24961 0.66211,-0.57617 1.4201,-1.38852 2.81974,-2.39359 4.54883,-3.26953 1.89,-0.95745 3.88274,-1.56901 5.96679,-1.82812 1.09108,-0.1356 2.78854,-0.1752 3.73438,-0.0879 0.47315,0.0437 0.92014,0.11375 1.36719,0.1836 l 3.29101,-3.33203 c -0.97212,-0.2825 -1.96676,-0.49831 -2.97656,-0.64258 -1.22705,-0.17526 -1.56302,-0.19727 -3.13672,-0.19727 z m 10.79297,2.83399 -2.88281,2.91992 c 0.11158,0.0539 0.2243,0.0938 0.33593,0.15039 1.72909,0.87595 3.12874,1.88102 4.54883,3.26953 0.33399,0.32657 0.57426,0.53547 0.66406,0.57617 0.18553,0.0843 0.49195,0.086 0.67969,0.004 0.19594,-0.0857 1.78069,-1.68407 1.83399,-1.84961 0.0214,-0.069 0.0314,-0.26823 0.0254,-0.5 -0.009,-0.31441 -0.0233,-0.41034 -0.0781,-0.51562 -0.0995,-0.19126 -1.12246,-1.17653 -1.88476,-1.81446 -1.01783,-0.85177 -2.10616,-1.59282 -3.24219,-2.24023 z m -10.39258,3.79297 c -1.72089,-0.0442 -3.45395,0.19597 -5.11328,0.73242 -1.50127,0.48535 -3.17949,1.35939 -4.41992,2.30273 -0.77761,0.59137 -1.9672,1.69632 -2.09765,1.94727 -0.0549,0.10576 -0.0701,0.20094 -0.0781,0.51562 -0.006,0.21747 0.004,0.43154 0.0234,0.49024 0.0421,0.12773 1.70561,1.80668 1.875,1.89258 0.14378,0.0725 0.47181,0.0781 0.64258,0.01 0.085,-0.034 0.23489,-0.16599 0.45507,-0.40234 1.00964,-1.08376 2.42005,-2.00983 3.91211,-2.625 z m 5.48242,1.17968 -3.08984,3.13086 c 0.31187,0.0786 0.62657,0.17101 0.95117,0.28125 1.73312,0.58859 3.41207,1.65322 4.57031,2.89649 0.22018,0.23635 0.36813,0.36834 0.45313,0.40234 0.15845,0.0634 0.47016,0.0653 0.61719,0.004 0.1578,-0.066 1.85489,-1.76818 1.90039,-1.90625 0.0189,-0.059 0.0294,-0.27225 0.0234,-0.49024 -0.009,-0.31468 -0.0232,-0.40986 -0.0781,-0.51562 -0.13045,-0.25095 -1.32004,-1.3559 -2.09766,-1.94727 -0.91133,-0.69307 -2.11452,-1.37342 -3.25,-1.85547 z m -5.43359,5.50586 -5.49219,5.56446 c 0.10347,0.0932 0.30623,0.29873 0.33789,0.31445 0.17136,0.0852 0.50109,0.0879 0.68164,0.006 0.0773,-0.0351 0.21486,-0.15623 0.33789,-0.29492 0.11469,-0.1293 0.34155,-0.34496 0.50391,-0.48047 1.62814,-1.35876 3.92036,-1.5395 5.72851,-0.45117 0.40623,0.24451 0.85315,0.60975 1.13868,0.93164 0.12303,0.13869 0.26254,0.25982 0.33984,0.29492 0.18163,0.082 0.4932,0.079 0.67383,-0.006 0.19944,-0.0937 1.81013,-1.71803 1.86133,-1.87695 0.0532,-0.16505 0.0237,-0.82072 -0.0449,-0.99219 -0.0617,-0.15429 -0.64841,-0.73916 -1.14843,-1.14453 -0.9746,-0.79012 -2.25289,-1.41211 -3.47461,-1.68946 -0.5228,-0.11869 -0.92789,-0.15869 -1.44336,-0.17578 z m -0.49805,6.90039 c -0.46182,0.002 -0.59739,0.0149 -0.85547,0.0781 -1.93187,0.47346 -3.22924,2.18077 -3.1289,4.12109 0.0521,1.00669 0.43,1.87143 1.13672,2.60157 0.64332,0.66462 1.4733,1.08484 2.36328,1.19726 0.8816,0.11136 1.82275,-0.0799 2.55078,-0.51953 1.30526,-0.78811 2.04082,-2.13475 1.98242,-3.63086 -0.0586,-1.50235 -0.88593,-2.773 -2.25586,-3.46289 -0.55826,-0.28113 -1.05336,-0.38777 -1.79297,-0.38477 z"
       id="path26127-2-0"
       inkscape:connector-curvature="0"
       inkscape:export-xdpi="847.88"
       inkscape:export-ydpi="847.88" />
    <rect
       style="opacity:1;vector-effect:none;fill:#ffffff;fill-opacity:1;stroke:#000000;stroke-width:0.24535942;stroke-linecap:round;stroke-linejoin:round;stroke-miterlimit:4;stroke-dasharray:none;stroke-dashoffset:0;stroke-opacity:1;paint-order:normal"
       id="rect1066-6"
       width="3.4053528"
       height="30.031548"
       x="88.811958"
       y="129.54993"
       ry="1.1874322" />
    <rect
       style="opacity:1;vector-effect:none;fill:#ffffff;fill-opacity:1;stroke:none;stroke-width:0.24535942;stroke-linecap:round;stroke-linejoin:round;stroke-miterlimit:4;stroke-dasharray:none;stroke-dashoffset:0;stroke-opacity:1;paint-order:normal"
       id="rect1066-6-4"
       width="3.4053528"
       height="30.031548"
       x="180.84422"
       y="-10.716487"
       ry="1.1874322"
       transform="rotate(45)"
       inkscape:export-xdpi="847.88"
       inkscape:export-ydpi="847.88" />
  </g>
</svg>
