<?xml version="1.0" encoding="UTF-8" standalone="no"?><svg xmlns="http://www.w3.org/2000/svg" xmlns:xlink="http://www.w3.org/1999/xlink" contentScriptType="application/ecmascript" contentStyleType="text/css" height="441px" preserveAspectRatio="none" style="width:535px;height:441px;" version="1.1" viewBox="0 0 535 441" width="535px" zoomAndPan="magnify"><defs><filter height="300%" id="fdr3zw2r897yl" width="300%" x="-1" y="-1"><feGaussianBlur result="blurOut" stdDeviation="2.0"/><feColorMatrix in="blurOut" result="blurOut2" type="matrix" values="0 0 0 0 0 0 0 0 0 0 0 0 0 0 0 0 0 0 .4 0"/><feOffset dx="4.0" dy="4.0" in="blurOut2" result="blurOut3"/><feBlend in="SourceGraphic" in2="blurOut3" mode="normal"/></filter></defs><g><rect fill="#FFFFFF" filter="url(#fdr3zw2r897yl)" height="172.9711" style="stroke: #A80036; stroke-width: 1.0;" width="10" x="216" y="70.9209"/><rect fill="#FFFFFF" filter="url(#fdr3zw2r897yl)" height="30" style="stroke: #A80036; stroke-width: 1.0;" width="10" x="331.5" y="98.7739"/><line style="stroke: #A80036; stroke-width: 1.0; stroke-dasharray: 5.0,5.0;" x1="130" x2="130" y1="41.0679" y2="398.716"/><line style="stroke: #A80036; stroke-width: 1.0; stroke-dasharray: 5.0,5.0;" x1="221" x2="221" y1="41.0679" y2="398.716"/><line style="stroke: #A80036; stroke-width: 1.0; stroke-dasharray: 5.0,5.0;" x1="336" x2="336" y1="41.0679" y2="398.716"/><rect fill="#FEFECE" filter="url(#fdr3zw2r897yl)" height="33.0679" style="stroke: #A80036; stroke-width: 1.5;" width="57" x="100" y="3"/><text fill="#000000" font-family="sans-serif" font-size="14" lengthAdjust="spacingAndGlyphs" textLength="43" x="107" y="24.9659">Server</text><rect fill="#FEFECE" filter="url(#fdr3zw2r897yl)" height="33.0679" style="stroke: #A80036; stroke-width: 1.5;" width="57" x="100" y="397.716"/><text fill="#000000" font-family="sans-serif" font-size="14" lengthAdjust="spacingAndGlyphs" textLength="43" x="107" y="419.682">Server</text><rect fill="#FEFECE" filter="url(#fdr3zw2r897yl)" height="33.0679" style="stroke: #A80036; stroke-width: 1.5;" width="96" x="171" y="3"/><text fill="#000000" font-family="sans-serif" font-size="14" lengthAdjust="spacingAndGlyphs" textLength="82" x="178" y="24.9659">Thread_jobs</text><rect fill="#FEFECE" filter="url(#fdr3zw2r897yl)" height="33.0679" style="stroke: #A80036; stroke-width: 1.5;" width="96" x="171" y="397.716"/><text fill="#000000" font-family="sans-serif" font-size="14" lengthAdjust="spacingAndGlyphs" textLength="82" x="178" y="419.682">Thread_jobs</text><rect fill="#FEFECE" filter="url(#fdr3zw2r897yl)" height="33.0679" style="stroke: #A80036; stroke-width: 1.5;" width="107" x="281" y="3"/><text fill="#000000" font-family="sans-serif" font-size="14" lengthAdjust="spacingAndGlyphs" textLength="93" x="288" y="24.9659">PeriodicTimer</text><rect fill="#FEFECE" filter="url(#fdr3zw2r897yl)" height="33.0679" style="stroke: #A80036; stroke-width: 1.5;" width="107" x="281" y="397.716"/><text fill="#000000" font-family="sans-serif" font-size="14" lengthAdjust="spacingAndGlyphs" textLength="93" x="288" y="419.682">PeriodicTimer</text><rect fill="#FFFFFF" filter="url(#fdr3zw2r897yl)" height="172.9711" style="stroke: #A80036; stroke-width: 1.0;" width="10" x="216" y="70.9209"/><rect fill="#FFFFFF" filter="url(#fdr3zw2r897yl)" height="30" style="stroke: #A80036; stroke-width: 1.0;" width="10" x="331.5" y="98.7739"/><polygon fill="#A80036" points="204,66.9209,214,70.9209,204,74.9209,208,70.9209" style="stroke: #A80036; stroke-width: 1.0;"/><line style="stroke: #A80036; stroke-width: 1.0;" x1="130.5" x2="210" y1="70.9209" y2="70.9209"/><path d="M8,56.0679 L8,83.0679 L122,83.0679 L122,66.0679 L112,56.0679 L8,56.0679 " fill="#FBFB77" filter="url(#fdr3zw2r897yl)" style="stroke: #A80036; stroke-width: 1.0;"/><path d="M112,56.0679 L112,66.0679 L122,66.0679 L112,56.0679 " fill="#FBFB77" style="stroke: #A80036; stroke-width: 1.0;"/><text fill="#000000" font-family="sans-serif" font-size="13" lengthAdjust="spacingAndGlyphs" textLength="93" x="14" y="74.9649">waiting for Jobs</text><polygon fill="#A80036" points="319.5,94.7739,329.5,98.7739,319.5,102.7739,323.5,98.7739" style="stroke: #A80036; stroke-width: 1.0;"/><line style="stroke: #A80036; stroke-width: 1.0;" x1="226" x2="325.5" y1="98.7739" y2="98.7739"/><path d="M341,141.7739 L341,168.7739 L523,168.7739 L523,151.7739 L513,141.7739 L341,141.7739 " fill="#FBFB77" filter="url(#fdr3zw2r897yl)" style="stroke: #A80036; stroke-width: 1.0;"/><path d="M513,141.7739 L513,151.7739 L523,151.7739 L513,141.7739 " fill="#FBFB77" style="stroke: #A80036; stroke-width: 1.0;"/><text fill="#000000" font-family="sans-serif" font-size="13" lengthAdjust="spacingAndGlyphs" textLength="161" x="347" y="160.6709">every x seconds check Jobs</text><path d="M235,183.4799 L235,228.4799 L433,228.4799 L433,193.4799 L423,183.4799 L235,183.4799 " fill="#FBFB77" filter="url(#fdr3zw2r897yl)" style="stroke: #A80036; stroke-width: 1.0;"/><path d="M423,183.4799 L423,193.4799 L433,193.4799 L423,183.4799 " fill="#FBFB77" style="stroke: #A80036; stroke-width: 1.0;"/><text fill="#000000" font-family="sans-serif" font-size="13" lengthAdjust="spacingAndGlyphs" textLength="177" x="241" y="202.377">Jobs per client and type of job</text><text fill="#000000" font-family="sans-serif" font-size="13" lengthAdjust="spacingAndGlyphs" textLength="143" x="244" y="220.083">retries a failed job ntime</text><polygon fill="#A80036" points="232,239.892,222,243.892,232,247.892,228,243.892" style="stroke: #A80036; stroke-width: 1.0;"/><line style="stroke: #A80036; stroke-width: 1.0;" x1="226" x2="335.5" y1="243.892" y2="243.892"/><path d="M171,256.892 L171,283.892 L266,283.892 L266,266.892 L256,256.892 L171,256.892 " fill="#FBFB77" filter="url(#fdr3zw2r897yl)" style="stroke: #A80036; stroke-width: 1.0;"/><path d="M256,256.892 L256,266.892 L266,266.892 L256,256.892 " fill="#FBFB77" style="stroke: #A80036; stroke-width: 1.0;"/><text fill="#000000" font-family="sans-serif" font-size="13" lengthAdjust="spacingAndGlyphs" textLength="74" x="177" y="275.789">no jobs? idle</text><polygon fill="#A80036" points="209,313.304,219,317.304,209,321.304,213,317.304" style="stroke: #A80036; stroke-width: 1.0;"/><line style="stroke: #A80036; stroke-width: 1.0;" x1="130.5" x2="215" y1="317.304" y2="317.304"/><text fill="#000000" font-family="sans-serif" font-size="13" lengthAdjust="spacingAndGlyphs" textLength="35" x="137.5" y="311.495">stop()</text><polygon fill="#A80036" points="324.5,345.01,334.5,349.01,324.5,353.01,328.5,349.01" style="stroke: #A80036; stroke-width: 1.0;"/><line style="stroke: #A80036; stroke-width: 1.0;" x1="221" x2="330.5" y1="349.01" y2="349.01"/><text fill="#000000" font-family="sans-serif" font-size="13" lengthAdjust="spacingAndGlyphs" textLength="35" x="228" y="343.201">stop()</text><polygon fill="#A80036" points="141.5,376.716,131.5,380.716,141.5,384.716,137.5,380.716" style="stroke: #A80036; stroke-width: 1.0;"/><line style="stroke: #A80036; stroke-width: 1.0;" x1="135.5" x2="335.5" y1="380.716" y2="380.716"/><text fill="#000000" font-family="sans-serif" font-size="13" lengthAdjust="spacingAndGlyphs" textLength="43" x="147.5" y="374.907">done ...</text><!--MD5=[0930aa3ce75ab26c23f0891d5d3165a8]
@startuml
	Server -> Thread_jobs:
	note left: waiting for Jobs
	activate Thread_jobs
	
	
	
	Thread_jobs -> PeriodicTimer
	note right PeriodicTimer: every x seconds check Jobs
	activate PeriodicTimer
	note over PeriodicTimer: Jobs per client and type of job\n retries a failed job ntime
	deactivate PeriodicTimer
	PeriodicTimer -> Thread_jobs
	note over Thread_jobs: no jobs? idle
	deactivate Thread_jobs
	
	Server -> Thread_jobs: stop()
	Thread_jobs -> PeriodicTimer: stop()
	PeriodicTimer -> Server: done ...
@enduml 

PlantUML version 1.2020.11(Sat May 30 12:13:43 CEST 2020)
(GPL source distribution)
Java Runtime: OpenJDK Runtime Environment
JVM: OpenJDK 64-Bit Server VM
Default Encoding: UTF-8
Language: de
Country: AT
--></g></svg>