<?xml version="1.0" encoding="UTF-8" standalone="no"?><svg xmlns="http://www.w3.org/2000/svg" xmlns:xlink="http://www.w3.org/1999/xlink" contentScriptType="application/ecmascript" contentStyleType="text/css" height="507px" preserveAspectRatio="none" style="width:727px;height:507px;" version="1.1" viewBox="0 0 727 507" width="727px" zoomAndPan="magnify"><defs><filter height="300%" id="f17fuztj98qrye" width="300%" x="-1" y="-1"><feGaussianBlur result="blurOut" stdDeviation="2.0"/><feColorMatrix in="blurOut" result="blurOut2" type="matrix" values="0 0 0 0 0 0 0 0 0 0 0 0 0 0 0 0 0 0 .4 0"/><feOffset dx="4.0" dy="4.0" in="blurOut2" result="blurOut3"/><feBlend in="SourceGraphic" in2="blurOut3" mode="normal"/></filter></defs><g><rect fill="#FFFFFF" filter="url(#f17fuztj98qrye)" height="269.3281" style="stroke: #000000; stroke-width: 2.0;" width="703.5" x="13" y="180.8281"/><line style="stroke: #A80036; stroke-width: 1.0; stroke-dasharray: 5.0,5.0;" x1="51" x2="51" y1="38.2969" y2="467.1563"/><line style="stroke: #A80036; stroke-width: 1.0; stroke-dasharray: 5.0,5.0;" x1="304.5" x2="304.5" y1="38.2969" y2="467.1563"/><rect fill="#FEFECE" filter="url(#f17fuztj98qrye)" height="30.2969" style="stroke: #A80036; stroke-width: 1.5;" width="53" x="23" y="3"/><text fill="#000000" font-family="sans-serif" font-size="14" lengthAdjust="spacingAndGlyphs" textLength="39" x="30" y="22.9951">Client</text><rect fill="#FEFECE" filter="url(#f17fuztj98qrye)" height="30.2969" style="stroke: #A80036; stroke-width: 1.5;" width="53" x="23" y="466.1563"/><text fill="#000000" font-family="sans-serif" font-size="14" lengthAdjust="spacingAndGlyphs" textLength="39" x="30" y="486.1514">Client</text><rect fill="#FEFECE" filter="url(#f17fuztj98qrye)" height="30.2969" style="stroke: #A80036; stroke-width: 1.5;" width="58" x="273.5" y="3"/><text fill="#000000" font-family="sans-serif" font-size="14" lengthAdjust="spacingAndGlyphs" textLength="44" x="280.5" y="22.9951">Server</text><rect fill="#FEFECE" filter="url(#f17fuztj98qrye)" height="30.2969" style="stroke: #A80036; stroke-width: 1.5;" width="58" x="273.5" y="466.1563"/><text fill="#000000" font-family="sans-serif" font-size="14" lengthAdjust="spacingAndGlyphs" textLength="44" x="280.5" y="486.1514">Server</text><polygon fill="#A80036" points="292.5,65.4297,302.5,69.4297,292.5,73.4297,296.5,69.4297" style="stroke: #A80036; stroke-width: 1.0;"/><line style="stroke: #A80036; stroke-width: 1.0;" x1="51.5" x2="298.5" y1="69.4297" y2="69.4297"/><text fill="#000000" font-family="sans-serif" font-size="13" lengthAdjust="spacingAndGlyphs" textLength="94" x="58.5" y="64.3638">"Multicast Call"</text><polygon fill="#A80036" points="62.5,107.1289,52.5,111.1289,62.5,115.1289,58.5,111.1289" style="stroke: #A80036; stroke-width: 1.0;"/><line style="stroke: #A80036; stroke-width: 1.0; stroke-dasharray: 2.0,2.0;" x1="56.5" x2="303.5" y1="111.1289" y2="111.1289"/><text fill="#000000" font-family="sans-serif" font-size="13" lengthAdjust="spacingAndGlyphs" textLength="133" x="68.5" y="106.063">"Multicast Response"</text><path d="M309,82.4297 L309,122.4297 L464,122.4297 L464,92.4297 L454,82.4297 L309,82.4297 " fill="#FBFB77" filter="url(#f17fuztj98qrye)" style="stroke: #A80036; stroke-width: 1.0;"/><path d="M454,82.4297 L454,92.4297 L464,92.4297 L454,82.4297 " fill="#FBFB77" style="stroke: #A80036; stroke-width: 1.0;"/><text fill="#000000" font-family="sans-serif" font-size="13" lengthAdjust="spacingAndGlyphs" textLength="134" x="315" y="99.4966">"Awaiting Connection</text><text fill="#000000" font-family="sans-serif" font-size="13" lengthAdjust="spacingAndGlyphs" textLength="75" x="315" y="114.6294">from Client"</text><line style="stroke: #A80036; stroke-width: 1.0;" x1="51.5" x2="93.5" y1="152.8281" y2="152.8281"/><line style="stroke: #A80036; stroke-width: 1.0;" x1="93.5" x2="93.5" y1="152.8281" y2="165.8281"/><line style="stroke: #A80036; stroke-width: 1.0;" x1="52.5" x2="93.5" y1="165.8281" y2="165.8281"/><polygon fill="#A80036" points="62.5,161.8281,52.5,165.8281,62.5,169.8281,58.5,165.8281" style="stroke: #A80036; stroke-width: 1.0;"/><text fill="#000000" font-family="sans-serif" font-size="13" lengthAdjust="spacingAndGlyphs" textLength="237" x="58.5" y="147.7622">starts twisted daemon in background</text><path d="M13,180.8281 L316,180.8281 L316,187.8281 L306,197.8281 L13,197.8281 L13,180.8281 " fill="#EEEEEE" style="stroke: #000000; stroke-width: 1.0;"/><rect fill="none" height="269.3281" style="stroke: #000000; stroke-width: 2.0;" width="703.5" x="13" y="180.8281"/><text fill="#000000" font-family="sans-serif" font-size="13" font-weight="bold" lengthAdjust="spacingAndGlyphs" textLength="258" x="28" y="193.895">twisted daemon examclient_plugin</text><polygon fill="#A80036" points="292.5,235.2266,302.5,239.2266,292.5,243.2266,296.5,239.2266" style="stroke: #A80036; stroke-width: 1.0;"/><line style="stroke: #A80036; stroke-width: 1.0;" x1="51.5" x2="298.5" y1="239.2266" y2="239.2266"/><text fill="#000000" font-family="sans-serif" font-size="13" lengthAdjust="spacingAndGlyphs" textLength="169" x="58.5" y="234.1606">"connectionMade(): AUTH"</text><path d="M309,202.9609 L309,257.9609 L540,257.9609 L540,212.9609 L530,202.9609 L309,202.9609 " fill="#FBFB77" filter="url(#f17fuztj98qrye)" style="stroke: #A80036; stroke-width: 1.0;"/><path d="M530,202.9609 L530,212.9609 L540,212.9609 L530,202.9609 " fill="#FBFB77" style="stroke: #A80036; stroke-width: 1.0;"/><text fill="#000000" font-family="sans-serif" font-size="13" lengthAdjust="spacingAndGlyphs" textLength="153" x="315" y="220.0278">"On every data received</text><text fill="#000000" font-family="sans-serif" font-size="13" lengthAdjust="spacingAndGlyphs" textLength="151" x="315" y="235.1606">check AUTH from Client</text><text fill="#000000" font-family="sans-serif" font-size="13" lengthAdjust="spacingAndGlyphs" textLength="210" x="315" y="250.2935">MyServerProtocol:lineReceived()"</text><line style="stroke: #A80036; stroke-width: 1.0;" x1="304.5" x2="346.5" y1="303.625" y2="303.625"/><line style="stroke: #A80036; stroke-width: 1.0;" x1="346.5" x2="346.5" y1="303.625" y2="316.625"/><line style="stroke: #A80036; stroke-width: 1.0;" x1="305.5" x2="346.5" y1="316.625" y2="316.625"/><polygon fill="#A80036" points="315.5,312.625,305.5,316.625,315.5,320.625,311.5,316.625" style="stroke: #A80036; stroke-width: 1.0;"/><text fill="#000000" font-family="sans-serif" font-size="13" lengthAdjust="spacingAndGlyphs" textLength="393" x="311.5" y="283.4263">MyServerProtocol: rawDataReceived(DataType.SCREENSHOT)</text><text fill="#000000" font-family="sans-serif" font-size="13" lengthAdjust="spacingAndGlyphs" textLength="227" x="311.5" y="298.5591">ServerUI: createOrUpdateListItem()</text><path d="M259,329.625 L259,354.625 L346,354.625 L346,339.625 L336,329.625 L259,329.625 " fill="#FBFB77" filter="url(#f17fuztj98qrye)" style="stroke: #A80036; stroke-width: 1.0;"/><path d="M336,329.625 L336,339.625 L346,339.625 L336,329.625 " fill="#FBFB77" style="stroke: #A80036; stroke-width: 1.0;"/><text fill="#000000" font-family="sans-serif" font-size="13" lengthAdjust="spacingAndGlyphs" textLength="66" x="265" y="346.6919">EXIT EXAM</text><line style="stroke: #A80036; stroke-width: 1.0;" x1="304.5" x2="346.5" y1="384.8906" y2="384.8906"/><line style="stroke: #A80036; stroke-width: 1.0;" x1="346.5" x2="346.5" y1="384.8906" y2="397.8906"/><line style="stroke: #A80036; stroke-width: 1.0;" x1="305.5" x2="346.5" y1="397.8906" y2="397.8906"/><polygon fill="#A80036" points="315.5,393.8906,305.5,397.8906,315.5,401.8906,311.5,397.8906" style="stroke: #A80036; stroke-width: 1.0;"/><text fill="#000000" font-family="sans-serif" font-size="13" lengthAdjust="spacingAndGlyphs" textLength="194" x="311.5" y="379.8247">ServerUI: _on_exit_exam(who)</text><polygon fill="#A80036" points="62.5,438.1563,52.5,442.1563,62.5,446.1563,58.5,442.1563" style="stroke: #A80036; stroke-width: 1.0;"/><line style="stroke: #A80036; stroke-width: 1.0;" x1="56.5" x2="303.5" y1="442.1563" y2="442.1563"/><text fill="#000000" font-family="sans-serif" font-size="13" lengthAdjust="spacingAndGlyphs" textLength="229" x="68.5" y="421.9575">server2client: request_abgabe(who)</text><text fill="#000000" font-family="sans-serif" font-size="13" lengthAdjust="spacingAndGlyphs" textLength="132" x="68.5" y="437.0903">FILETRANSFER:SEND</text><!--MD5=[03808e4424992dc254c020268b1581f5]
@startuml
Client -> Server: "Multicast Call"
Server - -> Client: "Multicast Response"
note right: "Awaiting Connection\nfrom Client"
Client->Client: starts twisted daemon in background

group twisted daemon examclient_plugin
	Client -> Server: "connectionMade(): AUTH"
	note right: "On every data received\ncheck AUTH from Client\nMyServerProtocol:lineReceived()"
	Server -> Server: MyServerProtocol: rawDataReceived(DataType.SCREENSHOT)\nServerUI: createOrUpdateListItem()
	
	note over Server: EXIT EXAM
	Server -> Server: ServerUI: _on_exit_exam(who)
	Server -> Client: server2client: request_abgabe(who)\nFILETRANSFER:SEND
	
end

@enduml 

PlantUML version 1.2019.12(Sun Nov 03 11:24:54 CET 2019)
(GPL source distribution)
Java Runtime: OpenJDK Runtime Environment
JVM: OpenJDK 64-Bit Server VM
Java Version: 11.0.4+11-post-Ubuntu-1ubuntu218.04.3
Operating System: Linux
Default Encoding: UTF-8
Language: de
Country: AT
--></g></svg>