<?xml version="1.0" encoding="UTF-8" standalone="no"?><svg xmlns="http://www.w3.org/2000/svg" xmlns:xlink="http://www.w3.org/1999/xlink" contentScriptType="application/ecmascript" contentStyleType="text/css" height="381px" preserveAspectRatio="none" style="width:725px;height:381px;" version="1.1" viewBox="0 0 725 381" width="725px" zoomAndPan="magnify"><defs><filter height="300%" id="fjbuw5ku3pw6v" width="300%" x="-1" y="-1"><feGaussianBlur result="blurOut" stdDeviation="2.0"/><feColorMatrix in="blurOut" result="blurOut2" type="matrix" values="0 0 0 0 0 0 0 0 0 0 0 0 0 0 0 0 0 0 .4 0"/><feOffset dx="4.0" dy="4.0" in="blurOut2" result="blurOut3"/><feBlend in="SourceGraphic" in2="blurOut3" mode="normal"/></filter></defs><g><rect fill="#FFFFFF" filter="url(#fjbuw5ku3pw6v)" height="143.7969" style="stroke: #000000; stroke-width: 2.0;" width="701.5" x="13" y="180.8281"/><line style="stroke: #A80036; stroke-width: 1.0; stroke-dasharray: 5.0,5.0;" x1="51" x2="51" y1="38.2969" y2="341.625"/><line style="stroke: #A80036; stroke-width: 1.0; stroke-dasharray: 5.0,5.0;" x1="302.5" x2="302.5" y1="38.2969" y2="341.625"/><rect fill="#FEFECE" filter="url(#fjbuw5ku3pw6v)" height="30.2969" style="stroke: #A80036; stroke-width: 1.5;" width="53" x="23" y="3"/><text fill="#000000" font-family="sans-serif" font-size="14" lengthAdjust="spacingAndGlyphs" textLength="39" x="30" y="22.9951">Client</text><rect fill="#FEFECE" filter="url(#fjbuw5ku3pw6v)" height="30.2969" style="stroke: #A80036; stroke-width: 1.5;" width="53" x="23" y="340.625"/><text fill="#000000" font-family="sans-serif" font-size="14" lengthAdjust="spacingAndGlyphs" textLength="39" x="30" y="360.6201">Client</text><rect fill="#FEFECE" filter="url(#fjbuw5ku3pw6v)" height="30.2969" style="stroke: #A80036; stroke-width: 1.5;" width="58" x="271.5" y="3"/><text fill="#000000" font-family="sans-serif" font-size="14" lengthAdjust="spacingAndGlyphs" textLength="44" x="278.5" y="22.9951">Server</text><rect fill="#FEFECE" filter="url(#fjbuw5ku3pw6v)" height="30.2969" style="stroke: #A80036; stroke-width: 1.5;" width="58" x="271.5" y="340.625"/><text fill="#000000" font-family="sans-serif" font-size="14" lengthAdjust="spacingAndGlyphs" textLength="44" x="278.5" y="360.6201">Server</text><polygon fill="#A80036" points="290.5,65.4297,300.5,69.4297,290.5,73.4297,294.5,69.4297" style="stroke: #A80036; stroke-width: 1.0;"/><line style="stroke: #A80036; stroke-width: 1.0;" x1="51.5" x2="296.5" y1="69.4297" y2="69.4297"/><text fill="#000000" font-family="sans-serif" font-size="13" lengthAdjust="spacingAndGlyphs" textLength="94" x="58.5" y="64.3638">"Multicast Call"</text><polygon fill="#A80036" points="62.5,107.1289,52.5,111.1289,62.5,115.1289,58.5,111.1289" style="stroke: #A80036; stroke-width: 1.0;"/><line style="stroke: #A80036; stroke-width: 1.0; stroke-dasharray: 2.0,2.0;" x1="56.5" x2="301.5" y1="111.1289" y2="111.1289"/><text fill="#000000" font-family="sans-serif" font-size="13" lengthAdjust="spacingAndGlyphs" textLength="133" x="68.5" y="106.063">"Multicast Response"</text><path d="M307,82.4297 L307,122.4297 L462,122.4297 L462,92.4297 L452,82.4297 L307,82.4297 " fill="#FBFB77" filter="url(#fjbuw5ku3pw6v)" style="stroke: #A80036; stroke-width: 1.0;"/><path d="M452,82.4297 L452,92.4297 L462,92.4297 L452,82.4297 " fill="#FBFB77" style="stroke: #A80036; stroke-width: 1.0;"/><text fill="#000000" font-family="sans-serif" font-size="13" lengthAdjust="spacingAndGlyphs" textLength="134" x="313" y="99.4966">"Awaiting Connection</text><text fill="#000000" font-family="sans-serif" font-size="13" lengthAdjust="spacingAndGlyphs" textLength="75" x="313" y="114.6294">from Client"</text><line style="stroke: #A80036; stroke-width: 1.0;" x1="51.5" x2="93.5" y1="152.8281" y2="152.8281"/><line style="stroke: #A80036; stroke-width: 1.0;" x1="93.5" x2="93.5" y1="152.8281" y2="165.8281"/><line style="stroke: #A80036; stroke-width: 1.0;" x1="52.5" x2="93.5" y1="165.8281" y2="165.8281"/><polygon fill="#A80036" points="62.5,161.8281,52.5,165.8281,62.5,169.8281,58.5,165.8281" style="stroke: #A80036; stroke-width: 1.0;"/><text fill="#000000" font-family="sans-serif" font-size="13" lengthAdjust="spacingAndGlyphs" textLength="237" x="58.5" y="147.7622">starts twisted daemon in background</text><path d="M13,180.8281 L316,180.8281 L316,187.8281 L306,197.8281 L13,197.8281 L13,180.8281 " fill="#EEEEEE" style="stroke: #000000; stroke-width: 1.0;"/><rect fill="none" height="143.7969" style="stroke: #000000; stroke-width: 2.0;" width="701.5" x="13" y="180.8281"/><text fill="#000000" font-family="sans-serif" font-size="13" font-weight="bold" lengthAdjust="spacingAndGlyphs" textLength="258" x="28" y="193.895">twisted daemon examclient_plugin</text><polygon fill="#A80036" points="290.5,235.2266,300.5,239.2266,290.5,243.2266,294.5,239.2266" style="stroke: #A80036; stroke-width: 1.0;"/><line style="stroke: #A80036; stroke-width: 1.0;" x1="51.5" x2="296.5" y1="239.2266" y2="239.2266"/><text fill="#000000" font-family="sans-serif" font-size="13" lengthAdjust="spacingAndGlyphs" textLength="169" x="58.5" y="234.1606">"connectionMade(): AUTH"</text><path d="M307,202.9609 L307,257.9609 L538,257.9609 L538,212.9609 L528,202.9609 L307,202.9609 " fill="#FBFB77" filter="url(#fjbuw5ku3pw6v)" style="stroke: #A80036; stroke-width: 1.0;"/><path d="M528,202.9609 L528,212.9609 L538,212.9609 L528,202.9609 " fill="#FBFB77" style="stroke: #A80036; stroke-width: 1.0;"/><text fill="#000000" font-family="sans-serif" font-size="13" lengthAdjust="spacingAndGlyphs" textLength="168" x="313" y="220.0278">"On every data received &gt;</text><text fill="#000000" font-family="sans-serif" font-size="13" lengthAdjust="spacingAndGlyphs" textLength="151" x="313" y="235.1606">check AUTH from Client</text><text fill="#000000" font-family="sans-serif" font-size="13" lengthAdjust="spacingAndGlyphs" textLength="210" x="313" y="250.2935">MyServerProtocol:lineReceived()"</text><line style="stroke: #A80036; stroke-width: 1.0;" x1="302.5" x2="344.5" y1="303.625" y2="303.625"/><line style="stroke: #A80036; stroke-width: 1.0;" x1="344.5" x2="344.5" y1="303.625" y2="316.625"/><line style="stroke: #A80036; stroke-width: 1.0;" x1="303.5" x2="344.5" y1="316.625" y2="316.625"/><polygon fill="#A80036" points="313.5,312.625,303.5,316.625,313.5,320.625,309.5,316.625" style="stroke: #A80036; stroke-width: 1.0;"/><text fill="#000000" font-family="sans-serif" font-size="13" lengthAdjust="spacingAndGlyphs" textLength="393" x="309.5" y="283.4263">MyServerProtocol: rawDataReceived(DataType.SCREENSHOT)</text><text fill="#000000" font-family="sans-serif" font-size="13" lengthAdjust="spacingAndGlyphs" textLength="227" x="309.5" y="298.5591">ServerUI: createOrUpdateListItem()</text><!--MD5=[2047388a19766dd150f4dcbb947066c7]
@startuml
Client -> Server: "Multicast Call"
Server - -> Client: "Multicast Response"
note right: "Awaiting Connection\nfrom Client"
Client->Client: starts twisted daemon in background

group twisted daemon examclient_plugin
	Client -> Server: "connectionMade(): AUTH"
	note right: "On every data received >\ncheck AUTH from Client\nMyServerProtocol:lineReceived()"
	Server -> Server: MyServerProtocol: rawDataReceived(DataType.SCREENSHOT)\nServerUI: createOrUpdateListItem()
end

@enduml 

PlantUML version 1.2019.12(Sun Nov 03 11:24:54 CET 2019)
(GPL source distribution)
Java Runtime: OpenJDK Runtime Environment
JVM: OpenJDK 64-Bit Server VM
Java Version: 11.0.4+11-post-Ubuntu-1ubuntu218.04.3
Operating System: Linux
Default Encoding: UTF-8
Language: de
Country: AT
--></g></svg>