<?xml version="1.0" encoding="UTF-8" standalone="no"?><svg xmlns="http://www.w3.org/2000/svg" xmlns:xlink="http://www.w3.org/1999/xlink" contentScriptType="application/ecmascript" contentStyleType="text/css" height="1268px" preserveAspectRatio="none" style="width:974px;height:1268px;" version="1.1" viewBox="0 0 974 1268" width="974px" zoomAndPan="magnify"><defs><filter height="300%" id="femk1cycuyiga" width="300%" x="-1" y="-1"><feGaussianBlur result="blurOut" stdDeviation="2.0"/><feColorMatrix in="blurOut" result="blurOut2" type="matrix" values="0 0 0 0 0 0 0 0 0 0 0 0 0 0 0 0 0 0 .4 0"/><feOffset dx="4.0" dy="4.0" in="blurOut2" result="blurOut3"/><feBlend in="SourceGraphic" in2="blurOut3" mode="normal"/></filter></defs><g><rect fill="#FFFFFF" filter="url(#femk1cycuyiga)" height="49.412" style="stroke: #A80036; stroke-width: 1.0;" width="10" x="788.5" y="606.7762"/><rect fill="#FFFFFF" filter="url(#femk1cycuyiga)" height="73.412" style="stroke: #A80036; stroke-width: 1.0;" width="10" x="788.5" y="1040.6604"/><rect fill="#FFFFFF" filter="url(#femk1cycuyiga)" height="1014.5925" style="stroke: #000000; stroke-width: 2.0;" width="951" x="12" y="193.892"/><line style="stroke: #A80036; stroke-width: 1.0; stroke-dasharray: 5.0,5.0;" x1="72" x2="72" y1="41.0679" y2="1225.4845"/><line style="stroke: #A80036; stroke-width: 1.0; stroke-dasharray: 5.0,5.0;" x1="413" x2="413" y1="41.0679" y2="1225.4845"/><line style="stroke: #A80036; stroke-width: 1.0; stroke-dasharray: 5.0,5.0;" x1="793.5" x2="793.5" y1="41.0679" y2="1225.4845"/><rect fill="#FEFECE" filter="url(#femk1cycuyiga)" height="33.0679" style="stroke: #A80036; stroke-width: 1.5;" width="53" x="44" y="3"/><text fill="#000000" font-family="sans-serif" font-size="14" lengthAdjust="spacingAndGlyphs" textLength="39" x="51" y="24.9659">Client</text><rect fill="#FEFECE" filter="url(#femk1cycuyiga)" height="33.0679" style="stroke: #A80036; stroke-width: 1.5;" width="53" x="44" y="1224.4845"/><text fill="#000000" font-family="sans-serif" font-size="14" lengthAdjust="spacingAndGlyphs" textLength="39" x="51" y="1246.4504">Client</text><rect fill="#FEFECE" filter="url(#femk1cycuyiga)" height="33.0679" style="stroke: #A80036; stroke-width: 1.5;" width="57" x="383" y="3"/><text fill="#000000" font-family="sans-serif" font-size="14" lengthAdjust="spacingAndGlyphs" textLength="43" x="390" y="24.9659">Server</text><rect fill="#FEFECE" filter="url(#femk1cycuyiga)" height="33.0679" style="stroke: #A80036; stroke-width: 1.5;" width="57" x="383" y="1224.4845"/><text fill="#000000" font-family="sans-serif" font-size="14" lengthAdjust="spacingAndGlyphs" textLength="43" x="390" y="1246.4504">Server</text><rect fill="#FEFECE" filter="url(#femk1cycuyiga)" height="33.0679" style="stroke: #A80036; stroke-width: 1.5;" width="62" x="760.5" y="3"/><text fill="#000000" font-family="sans-serif" font-size="14" lengthAdjust="spacingAndGlyphs" textLength="48" x="767.5" y="24.9659">Thread</text><rect fill="#FEFECE" filter="url(#femk1cycuyiga)" height="33.0679" style="stroke: #A80036; stroke-width: 1.5;" width="62" x="760.5" y="1224.4845"/><text fill="#000000" font-family="sans-serif" font-size="14" lengthAdjust="spacingAndGlyphs" textLength="48" x="767.5" y="1246.4504">Thread</text><rect fill="#FFFFFF" filter="url(#femk1cycuyiga)" height="49.412" style="stroke: #A80036; stroke-width: 1.0;" width="10" x="788.5" y="606.7762"/><rect fill="#FFFFFF" filter="url(#femk1cycuyiga)" height="73.412" style="stroke: #A80036; stroke-width: 1.0;" width="10" x="788.5" y="1040.6604"/><polygon fill="#A80036" points="401.5,70.7739,411.5,74.7739,401.5,78.7739,405.5,74.7739" style="stroke: #A80036; stroke-width: 1.0;"/><line style="stroke: #A80036; stroke-width: 1.0;" x1="72.5" x2="407.5" y1="74.7739" y2="74.7739"/><text fill="#000000" font-family="sans-serif" font-size="13" lengthAdjust="spacingAndGlyphs" textLength="79" x="79.5" y="68.9649">Multicast Call</text><polygon fill="#A80036" points="83.5,116.333,73.5,120.333,83.5,124.333,79.5,120.333" style="stroke: #A80036; stroke-width: 1.0;"/><line style="stroke: #A80036; stroke-width: 1.0; stroke-dasharray: 2.0,2.0;" x1="77.5" x2="412.5" y1="120.333" y2="120.333"/><text fill="#000000" font-family="sans-serif" font-size="13" lengthAdjust="spacingAndGlyphs" textLength="116" x="89.5" y="114.524">Multicast Response</text><path d="M418,87.7739 L418,132.7739 L563,132.7739 L563,97.7739 L553,87.7739 L418,87.7739 " fill="#FBFB77" filter="url(#femk1cycuyiga)" style="stroke: #A80036; stroke-width: 1.0;"/><path d="M553,87.7739 L553,97.7739 L563,97.7739 L553,87.7739 " fill="#FBFB77" style="stroke: #A80036; stroke-width: 1.0;"/><text fill="#000000" font-family="sans-serif" font-size="13" lengthAdjust="spacingAndGlyphs" textLength="124" x="424" y="106.6709">Awaiting Connection</text><text fill="#000000" font-family="sans-serif" font-size="13" lengthAdjust="spacingAndGlyphs" textLength="66" x="424" y="124.377">from Client</text><line style="stroke: #A80036; stroke-width: 1.0;" x1="72.5" x2="114.5" y1="165.892" y2="165.892"/><line style="stroke: #A80036; stroke-width: 1.0;" x1="114.5" x2="114.5" y1="165.892" y2="178.892"/><line style="stroke: #A80036; stroke-width: 1.0;" x1="73.5" x2="114.5" y1="178.892" y2="178.892"/><polygon fill="#A80036" points="83.5,174.892,73.5,178.892,83.5,182.892,79.5,178.892" style="stroke: #A80036; stroke-width: 1.0;"/><text fill="#000000" font-family="sans-serif" font-size="13" lengthAdjust="spacingAndGlyphs" textLength="224" x="79.5" y="160.083">starts twisted daemon in background</text><path d="M12,193.892 L382,193.892 L382,202.892 L372,212.892 L12,212.892 L12,193.892 " fill="#EEEEEE" style="stroke: #000000; stroke-width: 1.0;"/><rect fill="none" height="1014.5925" style="stroke: #000000; stroke-width: 2.0;" width="951" x="12" y="193.892"/><text fill="#000000" font-family="sans-serif" font-size="13" font-weight="bold" lengthAdjust="spacingAndGlyphs" textLength="325" x="27" y="208.789">twisted daemon examclient_plugin runs on client</text><polygon fill="#A80036" points="401.5,256.01,411.5,260.01,401.5,264.01,405.5,260.01" style="stroke: #A80036; stroke-width: 1.0;"/><line style="stroke: #A80036; stroke-width: 1.0;" x1="72.5" x2="407.5" y1="260.01" y2="260.01"/><text fill="#000000" font-family="sans-serif" font-size="13" lengthAdjust="spacingAndGlyphs" textLength="150" x="79.5" y="254.201">connectionMade(): AUTH</text><path d="M418,218.598 L418,281.598 L632,281.598 L632,228.598 L622,218.598 L418,218.598 " fill="#FBFB77" filter="url(#femk1cycuyiga)" style="stroke: #A80036; stroke-width: 1.0;"/><path d="M622,218.598 L622,228.598 L632,228.598 L622,218.598 " fill="#FBFB77" style="stroke: #A80036; stroke-width: 1.0;"/><text fill="#000000" font-family="sans-serif" font-size="13" lengthAdjust="spacingAndGlyphs" textLength="137" x="424" y="237.495">On every data received</text><text fill="#000000" font-family="sans-serif" font-size="13" lengthAdjust="spacingAndGlyphs" textLength="141" x="424" y="255.201">check AUTH from Client</text><text fill="#000000" font-family="sans-serif" font-size="13" lengthAdjust="spacingAndGlyphs" textLength="193" x="424" y="272.907">MyServerProtocol:lineReceived()</text><line style="stroke: #A80036; stroke-width: 1.0;" x1="413.5" x2="455.5" y1="332.1281" y2="332.1281"/><line style="stroke: #A80036; stroke-width: 1.0;" x1="455.5" x2="455.5" y1="332.1281" y2="345.1281"/><line style="stroke: #A80036; stroke-width: 1.0;" x1="414.5" x2="455.5" y1="345.1281" y2="345.1281"/><polygon fill="#A80036" points="424.5,341.1281,414.5,345.1281,424.5,349.1281,420.5,345.1281" style="stroke: #A80036; stroke-width: 1.0;"/><text fill="#000000" font-family="sans-serif" font-size="13" lengthAdjust="spacingAndGlyphs" textLength="366" x="420.5" y="308.6131">MyServerProtocol: rawDataReceived(DataType.SCREENSHOT)</text><text fill="#000000" font-family="sans-serif" font-size="13" lengthAdjust="spacingAndGlyphs" textLength="212" x="420.5" y="326.3191">ServerUI: createOrUpdateListItem()</text><path d="M369,358.1281 L369,385.1281 L454,385.1281 L454,368.1281 L444,358.1281 L369,358.1281 " fill="#FBFB77" filter="url(#femk1cycuyiga)" style="stroke: #A80036; stroke-width: 1.0;"/><path d="M444,358.1281 L444,368.1281 L454,368.1281 L444,358.1281 " fill="#FBFB77" style="stroke: #A80036; stroke-width: 1.0;"/><text fill="#000000" font-family="sans-serif" font-size="13" lengthAdjust="spacingAndGlyphs" textLength="64" x="375" y="377.0251">EXIT EXAM</text><line style="stroke: #A80036; stroke-width: 1.0;" x1="413.5" x2="455.5" y1="418.5401" y2="418.5401"/><line style="stroke: #A80036; stroke-width: 1.0;" x1="455.5" x2="455.5" y1="418.5401" y2="431.5401"/><line style="stroke: #A80036; stroke-width: 1.0;" x1="414.5" x2="455.5" y1="431.5401" y2="431.5401"/><polygon fill="#A80036" points="424.5,427.5401,414.5,431.5401,424.5,435.5401,420.5,431.5401" style="stroke: #A80036; stroke-width: 1.0;"/><text fill="#000000" font-family="sans-serif" font-size="13" lengthAdjust="spacingAndGlyphs" textLength="181" x="420.5" y="412.7311">ServerUI: _on_exit_exam(who)</text><polygon fill="#A80036" points="83.5,476.9521,73.5,480.9521,83.5,484.9521,79.5,480.9521" style="stroke: #A80036; stroke-width: 1.0;"/><line style="stroke: #A80036; stroke-width: 1.0;" x1="77.5" x2="412.5" y1="480.9521" y2="480.9521"/><text fill="#000000" font-family="sans-serif" font-size="13" lengthAdjust="spacingAndGlyphs" textLength="213" x="89.5" y="457.4371">server2client: request_abgabe(who)</text><text fill="#000000" font-family="sans-serif" font-size="13" lengthAdjust="spacingAndGlyphs" textLength="123" x="89.5" y="475.1431">FILETRANSFER:SEND</text><line style="stroke: #A80036; stroke-width: 1.0;" x1="72.5" x2="114.5" y1="512.6582" y2="512.6582"/><line style="stroke: #A80036; stroke-width: 1.0;" x1="114.5" x2="114.5" y1="512.6582" y2="525.6582"/><line style="stroke: #A80036; stroke-width: 1.0;" x1="73.5" x2="114.5" y1="525.6582" y2="525.6582"/><polygon fill="#A80036" points="83.5,521.6582,73.5,525.6582,83.5,529.6582,79.5,525.6582" style="stroke: #A80036; stroke-width: 1.0;"/><text fill="#000000" font-family="sans-serif" font-size="13" lengthAdjust="spacingAndGlyphs" textLength="244" x="79.5" y="506.8492">client2server: file_transfer_request(client)</text><polygon fill="#A80036" points="401.5,553.3642,411.5,557.3642,401.5,561.3642,405.5,557.3642" style="stroke: #A80036; stroke-width: 1.0;"/><line style="stroke: #A80036; stroke-width: 1.0;" x1="72.5" x2="407.5" y1="557.3642" y2="557.3642"/><text fill="#000000" font-family="sans-serif" font-size="13" lengthAdjust="spacingAndGlyphs" textLength="279" x="79.5" y="551.5552">examclient_plugin: _sendFile(filename, filetype)</text><polygon fill="#A80036" points="776.5,602.7762,786.5,606.7762,776.5,610.7762,780.5,606.7762" style="stroke: #A80036; stroke-width: 1.0;"/><line style="stroke: #A80036; stroke-width: 1.0;" x1="413.5" x2="782.5" y1="606.7762" y2="606.7762"/><text fill="#000000" font-family="sans-serif" font-size="13" lengthAdjust="spacingAndGlyphs" textLength="212" x="420.5" y="583.2612">&lt;&lt; Thread-Wait &gt;&gt; wait for all clients</text><text fill="#000000" font-family="sans-serif" font-size="13" lengthAdjust="spacingAndGlyphs" textLength="293" x="420.5" y="600.9672">MyServerProtocol:rawDataReceived -&gt; fire Events</text><polygon fill="#A80036" points="83.5,652.1882,73.5,656.1882,83.5,660.1882,79.5,656.1882" style="stroke: #A80036; stroke-width: 1.0;"/><line style="stroke: #A80036; stroke-width: 1.0;" x1="77.5" x2="792.5" y1="656.1882" y2="656.1882"/><text fill="#000000" font-family="sans-serif" font-size="13" lengthAdjust="spacingAndGlyphs" textLength="143" x="89.5" y="632.6732">server2client: exit_exam</text><text fill="#000000" font-family="sans-serif" font-size="13" lengthAdjust="spacingAndGlyphs" textLength="61" x="89.5" y="650.3792">EXITEXAM</text><path d="M362,669.1882 L362,696.1882 L461,696.1882 L461,679.1882 L451,669.1882 L362,669.1882 " fill="#FBFB77" filter="url(#femk1cycuyiga)" style="stroke: #A80036; stroke-width: 1.0;"/><path d="M451,669.1882 L451,679.1882 L461,679.1882 L451,669.1882 " fill="#FBFB77" style="stroke: #A80036; stroke-width: 1.0;"/><text fill="#000000" font-family="sans-serif" font-size="13" lengthAdjust="spacingAndGlyphs" textLength="78" x="368" y="688.0853">Datei senden</text><line style="stroke: #A80036; stroke-width: 1.0;" x1="413.5" x2="455.5" y1="729.6003" y2="729.6003"/><line style="stroke: #A80036; stroke-width: 1.0;" x1="455.5" x2="455.5" y1="729.6003" y2="742.6003"/><line style="stroke: #A80036; stroke-width: 1.0;" x1="414.5" x2="455.5" y1="742.6003" y2="742.6003"/><polygon fill="#A80036" points="424.5,738.6003,414.5,742.6003,424.5,746.6003,420.5,742.6003" style="stroke: #A80036; stroke-width: 1.0;"/><text fill="#000000" font-family="sans-serif" font-size="13" lengthAdjust="spacingAndGlyphs" textLength="138" x="420.5" y="723.7913">ServerUI: _onSendFile()</text><polygon fill="#A80036" points="83.5,770.3063,73.5,774.3063,83.5,778.3063,79.5,774.3063" style="stroke: #A80036; stroke-width: 1.0;"/><line style="stroke: #A80036; stroke-width: 1.0;" x1="77.5" x2="412.5" y1="774.3063" y2="774.3063"/><text fill="#000000" font-family="sans-serif" font-size="13" lengthAdjust="spacingAndGlyphs" textLength="157" x="89.5" y="768.4973">server_to_client.send_file()</text><polygon fill="#A80036" points="401.5,819.7183,411.5,823.7183,401.5,827.7183,405.5,823.7183" style="stroke: #A80036; stroke-width: 1.0;"/><line style="stroke: #A80036; stroke-width: 1.0;" x1="72.5" x2="407.5" y1="823.7183" y2="823.7183"/><text fill="#000000" font-family="sans-serif" font-size="13" lengthAdjust="spacingAndGlyphs" textLength="112" x="79.5" y="800.2033">examclient_plugin:</text><text fill="#000000" font-family="sans-serif" font-size="13" lengthAdjust="spacingAndGlyphs" textLength="317" x="79.5" y="817.9093">rawDataReceived[DataType.FILE]: Command.FILE_OK</text><path d="M362,836.7183 L362,863.7183 L460,863.7183 L460,846.7183 L450,836.7183 L362,836.7183 " fill="#FBFB77" filter="url(#femk1cycuyiga)" style="stroke: #A80036; stroke-width: 1.0;"/><path d="M450,836.7183 L450,846.7183 L460,846.7183 L450,836.7183 " fill="#FBFB77" style="stroke: #A80036; stroke-width: 1.0;"/><text fill="#000000" font-family="sans-serif" font-size="13" lengthAdjust="spacingAndGlyphs" textLength="77" x="368" y="855.6153">Lock Screens</text><line style="stroke: #A80036; stroke-width: 1.0;" x1="413.5" x2="455.5" y1="897.1304" y2="897.1304"/><line style="stroke: #A80036; stroke-width: 1.0;" x1="455.5" x2="455.5" y1="897.1304" y2="910.1304"/><line style="stroke: #A80036; stroke-width: 1.0;" x1="414.5" x2="455.5" y1="910.1304" y2="910.1304"/><polygon fill="#A80036" points="424.5,906.1304,414.5,910.1304,424.5,914.1304,420.5,910.1304" style="stroke: #A80036; stroke-width: 1.0;"/><text fill="#000000" font-family="sans-serif" font-size="13" lengthAdjust="spacingAndGlyphs" textLength="152" x="420.5" y="891.3214">ServerUI: _onScreenlock()</text><polygon fill="#A80036" points="83.5,937.8364,73.5,941.8364,83.5,945.8364,79.5,941.8364" style="stroke: #A80036; stroke-width: 1.0;"/><line style="stroke: #A80036; stroke-width: 1.0;" x1="77.5" x2="412.5" y1="941.8364" y2="941.8364"/><text fill="#000000" font-family="sans-serif" font-size="13" lengthAdjust="spacingAndGlyphs" textLength="180" x="89.5" y="936.0274">server_to_client.lock_screens()</text><polygon fill="#A80036" points="401.5,987.2484,411.5,991.2484,401.5,995.2484,405.5,991.2484" style="stroke: #A80036; stroke-width: 1.0;"/><line style="stroke: #A80036; stroke-width: 1.0;" x1="72.5" x2="407.5" y1="991.2484" y2="991.2484"/><text fill="#000000" font-family="sans-serif" font-size="13" lengthAdjust="spacingAndGlyphs" textLength="112" x="79.5" y="967.7334">examclient_plugin:</text><text fill="#000000" font-family="sans-serif" font-size="13" lengthAdjust="spacingAndGlyphs" textLength="317" x="79.5" y="985.4394">rawDataReceived[DataType.FILE]: Command.FILE_OK</text><polygon fill="#A80036" points="776.5,1036.6604,786.5,1040.6604,776.5,1044.6604,780.5,1040.6604" style="stroke: #A80036; stroke-width: 1.0;"/><line style="stroke: #A80036; stroke-width: 1.0;" x1="413.5" x2="782.5" y1="1040.6604" y2="1040.6604"/><text fill="#000000" font-family="sans-serif" font-size="13" lengthAdjust="spacingAndGlyphs" textLength="212" x="420.5" y="1017.1454">&lt;&lt; Thread-Wait &gt;&gt; wait for all clients</text><text fill="#000000" font-family="sans-serif" font-size="13" lengthAdjust="spacingAndGlyphs" textLength="241" x="420.5" y="1034.8514">MyServerProtocol -&gt; fire Events (diverse)</text><path d="M633,1053.6604 L633,1080.6604 L949,1080.6604 L949,1063.6604 L939,1053.6604 L633,1053.6604 " fill="#FBFB77" filter="url(#femk1cycuyiga)" style="stroke: #A80036; stroke-width: 1.0;"/><path d="M939,1053.6604 L939,1063.6604 L949,1063.6604 L939,1053.6604 " fill="#FBFB77" style="stroke: #A80036; stroke-width: 1.0;"/><text fill="#000000" font-family="sans-serif" font-size="13" lengthAdjust="spacingAndGlyphs" textLength="295" x="639" y="1072.5575">&lt;&lt; LockScreen, UnlockScreen, Abgabe received &gt;&gt;</text><polygon fill="#A80036" points="424.5,1110.0725,414.5,1114.0725,424.5,1118.0725,420.5,1114.0725" style="stroke: #A80036; stroke-width: 1.0;"/><line style="stroke: #A80036; stroke-width: 1.0;" x1="418.5" x2="792.5" y1="1114.0725" y2="1114.0725"/><text fill="#000000" font-family="sans-serif" font-size="13" lengthAdjust="spacingAndGlyphs" textLength="255" x="430.5" y="1108.2635">Repeat until everything is done, try x times</text><path d="M22,1127.0725 L22,1154.0725 L118,1154.0725 L118,1137.0725 L108,1127.0725 L22,1127.0725 " fill="#FBFB77" filter="url(#femk1cycuyiga)" style="stroke: #A80036; stroke-width: 1.0;"/><path d="M108,1127.0725 L108,1137.0725 L118,1137.0725 L108,1127.0725 " fill="#FBFB77" style="stroke: #A80036; stroke-width: 1.0;"/><text fill="#000000" font-family="sans-serif" font-size="13" lengthAdjust="spacingAndGlyphs" textLength="75" x="28" y="1145.9695">START EXAM</text><line style="stroke: #A80036; stroke-width: 1.0;" x1="72.5" x2="114.5" y1="1187.4845" y2="1187.4845"/><line style="stroke: #A80036; stroke-width: 1.0;" x1="114.5" x2="114.5" y1="1187.4845" y2="1200.4845"/><line style="stroke: #A80036; stroke-width: 1.0;" x1="73.5" x2="114.5" y1="1200.4845" y2="1200.4845"/><polygon fill="#A80036" points="83.5,1196.4845,73.5,1200.4845,83.5,1204.4845,79.5,1200.4845" style="stroke: #A80036; stroke-width: 1.0;"/><text fill="#000000" font-family="sans-serif" font-size="13" lengthAdjust="spacingAndGlyphs" textLength="189" x="79.5" y="1181.6755">rawDataReceived():_startExam()</text><!--MD5=[7df9bdff78fa9c5d475273078431a172]
@startuml
Client -> Server: Multicast Call
Server - -> Client: Multicast Response
note right: Awaiting Connection\nfrom Client
Client->Client: starts twisted daemon in background

group twisted daemon examclient_plugin runs on client
	Client -> Server: connectionMade(): AUTH
	note right: On every data received\ncheck AUTH from Client\nMyServerProtocol:lineReceived()
	Server -> Server: MyServerProtocol: rawDataReceived(DataType.SCREENSHOT)\nServerUI: createOrUpdateListItem()
	
	note over Server: EXIT EXAM
	Server -> Server: ServerUI: _on_exit_exam(who)
	Server -> Client: server2client: request_abgabe(who)\nFILETRANSFER:SEND
	
	Client -> Client: client2server: file_transfer_request(client)
	Client -> Server: examclient_plugin: _sendFile(filename, filetype)
	
	
	Server -> Thread: << Thread-Wait >> wait for all clients\nMyServerProtocol:rawDataReceived -> fire Events
	activate Thread
	
	Thread -> Client: server2client: exit_exam\nEXITEXAM
	deactivate Thread
	
	note over Server: Datei senden
	Server -> Server: ServerUI: _onSendFile()
	Server -> Client: server_to_client.send_file()
	Client -> Server: examclient_plugin:\nrawDataReceived[DataType.FILE]: Command.FILE_OK
	
	note over Server: Lock Screens
	Server -> Server: ServerUI: _onScreenlock()
	Server -> Client: server_to_client.lock_screens()
	Client -> Server: examclient_plugin:\nrawDataReceived[DataType.FILE]: Command.FILE_OK
	
	Server -> Thread: << Thread-Wait >> wait for all clients\nMyServerProtocol -> fire Events (diverse)
	activate Thread
	note over Thread: << LockScreen, UnlockScreen, Abgabe received >>
	Thread -> Server: Repeat until everything is done, try x times
	deactivate Thread
	
	note over Client: START EXAM
	Client -> Client: rawDataReceived():_startExam()
	
	
end

@enduml 

PlantUML version 1.2020.11(Sat May 30 12:13:43 CEST 2020)
(GPL source distribution)
Java Runtime: OpenJDK Runtime Environment
JVM: OpenJDK 64-Bit Server VM
Default Encoding: UTF-8
Language: de
Country: AT
--></g></svg>