<?xml version="1.0" encoding="UTF-8" standalone="no"?><svg xmlns="http://www.w3.org/2000/svg" xmlns:xlink="http://www.w3.org/1999/xlink" contentScriptType="application/ecmascript" contentStyleType="text/css" height="652px" preserveAspectRatio="none" style="width:838px;height:652px;" version="1.1" viewBox="0 0 838 652" width="838px" zoomAndPan="magnify"><defs><filter height="300%" id="fr7vz2un993h5" width="300%" x="-1" y="-1"><feGaussianBlur result="blurOut" stdDeviation="2.0"/><feColorMatrix in="blurOut" result="blurOut2" type="matrix" values="0 0 0 0 0 0 0 0 0 0 0 0 0 0 0 0 0 0 .4 0"/><feOffset dx="4.0" dy="4.0" in="blurOut2" result="blurOut3"/><feBlend in="SourceGraphic" in2="blurOut3" mode="normal"/></filter></defs><g><rect fill="#FFFFFF" filter="url(#fr7vz2un993h5)" height="44.2656" style="stroke: #A80036; stroke-width: 1.0;" width="10" x="778.5" y="542.5547"/><rect fill="#FFFFFF" filter="url(#fr7vz2un993h5)" height="413.9922" style="stroke: #000000; stroke-width: 2.0;" width="814" x="13" y="180.8281"/><line style="stroke: #A80036; stroke-width: 1.0; stroke-dasharray: 5.0,5.0;" x1="51" x2="51" y1="38.2969" y2="611.8203"/><line style="stroke: #A80036; stroke-width: 1.0; stroke-dasharray: 5.0,5.0;" x1="376.5" x2="376.5" y1="38.2969" y2="611.8203"/><line style="stroke: #A80036; stroke-width: 1.0; stroke-dasharray: 5.0,5.0;" x1="783" x2="783" y1="38.2969" y2="611.8203"/><rect fill="#FEFECE" filter="url(#fr7vz2un993h5)" height="30.2969" style="stroke: #A80036; stroke-width: 1.5;" width="53" x="23" y="3"/><text fill="#000000" font-family="sans-serif" font-size="14" lengthAdjust="spacingAndGlyphs" textLength="39" x="30" y="22.9951">Client</text><rect fill="#FEFECE" filter="url(#fr7vz2un993h5)" height="30.2969" style="stroke: #A80036; stroke-width: 1.5;" width="53" x="23" y="610.8203"/><text fill="#000000" font-family="sans-serif" font-size="14" lengthAdjust="spacingAndGlyphs" textLength="39" x="30" y="630.8154">Client</text><rect fill="#FEFECE" filter="url(#fr7vz2un993h5)" height="30.2969" style="stroke: #A80036; stroke-width: 1.5;" width="58" x="345.5" y="3"/><text fill="#000000" font-family="sans-serif" font-size="14" lengthAdjust="spacingAndGlyphs" textLength="44" x="352.5" y="22.9951">Server</text><rect fill="#FEFECE" filter="url(#fr7vz2un993h5)" height="30.2969" style="stroke: #A80036; stroke-width: 1.5;" width="58" x="345.5" y="610.8203"/><text fill="#000000" font-family="sans-serif" font-size="14" lengthAdjust="spacingAndGlyphs" textLength="44" x="352.5" y="630.8154">Server</text><rect fill="#FEFECE" filter="url(#fr7vz2un993h5)" height="30.2969" style="stroke: #A80036; stroke-width: 1.5;" width="63" x="750" y="3"/><text fill="#000000" font-family="sans-serif" font-size="14" lengthAdjust="spacingAndGlyphs" textLength="49" x="757" y="22.9951">Thread</text><rect fill="#FEFECE" filter="url(#fr7vz2un993h5)" height="30.2969" style="stroke: #A80036; stroke-width: 1.5;" width="63" x="750" y="610.8203"/><text fill="#000000" font-family="sans-serif" font-size="14" lengthAdjust="spacingAndGlyphs" textLength="49" x="757" y="630.8154">Thread</text><rect fill="#FFFFFF" filter="url(#fr7vz2un993h5)" height="44.2656" style="stroke: #A80036; stroke-width: 1.0;" width="10" x="778.5" y="542.5547"/><polygon fill="#A80036" points="364.5,65.4297,374.5,69.4297,364.5,73.4297,368.5,69.4297" style="stroke: #A80036; stroke-width: 1.0;"/><line style="stroke: #A80036; stroke-width: 1.0;" x1="51.5" x2="370.5" y1="69.4297" y2="69.4297"/><text fill="#000000" font-family="sans-serif" font-size="13" lengthAdjust="spacingAndGlyphs" textLength="84" x="58.5" y="64.3638">Multicast Call</text><polygon fill="#A80036" points="62.5,107.1289,52.5,111.1289,62.5,115.1289,58.5,111.1289" style="stroke: #A80036; stroke-width: 1.0;"/><line style="stroke: #A80036; stroke-width: 1.0; stroke-dasharray: 2.0,2.0;" x1="56.5" x2="375.5" y1="111.1289" y2="111.1289"/><text fill="#000000" font-family="sans-serif" font-size="13" lengthAdjust="spacingAndGlyphs" textLength="123" x="68.5" y="106.063">Multicast Response</text><path d="M381,82.4297 L381,122.4297 L531,122.4297 L531,92.4297 L521,82.4297 L381,82.4297 " fill="#FBFB77" filter="url(#fr7vz2un993h5)" style="stroke: #A80036; stroke-width: 1.0;"/><path d="M521,82.4297 L521,92.4297 L531,92.4297 L521,82.4297 " fill="#FBFB77" style="stroke: #A80036; stroke-width: 1.0;"/><text fill="#000000" font-family="sans-serif" font-size="13" lengthAdjust="spacingAndGlyphs" textLength="129" x="387" y="99.4966">Awaiting Connection</text><text fill="#000000" font-family="sans-serif" font-size="13" lengthAdjust="spacingAndGlyphs" textLength="70" x="387" y="114.6294">from Client</text><line style="stroke: #A80036; stroke-width: 1.0;" x1="51.5" x2="93.5" y1="152.8281" y2="152.8281"/><line style="stroke: #A80036; stroke-width: 1.0;" x1="93.5" x2="93.5" y1="152.8281" y2="165.8281"/><line style="stroke: #A80036; stroke-width: 1.0;" x1="52.5" x2="93.5" y1="165.8281" y2="165.8281"/><polygon fill="#A80036" points="62.5,161.8281,52.5,165.8281,62.5,169.8281,58.5,165.8281" style="stroke: #A80036; stroke-width: 1.0;"/><text fill="#000000" font-family="sans-serif" font-size="13" lengthAdjust="spacingAndGlyphs" textLength="237" x="58.5" y="147.7622">starts twisted daemon in background</text><path d="M13,180.8281 L421,180.8281 L421,187.8281 L411,197.8281 L13,197.8281 L13,180.8281 " fill="#EEEEEE" style="stroke: #000000; stroke-width: 1.0;"/><rect fill="none" height="413.9922" style="stroke: #000000; stroke-width: 2.0;" width="814" x="13" y="180.8281"/><text fill="#000000" font-family="sans-serif" font-size="13" font-weight="bold" lengthAdjust="spacingAndGlyphs" textLength="363" x="28" y="193.895">twisted daemon examclient_plugin runs on client</text><polygon fill="#A80036" points="364.5,235.2266,374.5,239.2266,364.5,243.2266,368.5,239.2266" style="stroke: #A80036; stroke-width: 1.0;"/><line style="stroke: #A80036; stroke-width: 1.0;" x1="51.5" x2="370.5" y1="239.2266" y2="239.2266"/><text fill="#000000" font-family="sans-serif" font-size="13" lengthAdjust="spacingAndGlyphs" textLength="159" x="58.5" y="234.1606">connectionMade(): AUTH</text><path d="M381,202.9609 L381,257.9609 L607,257.9609 L607,212.9609 L597,202.9609 L381,202.9609 " fill="#FBFB77" filter="url(#fr7vz2un993h5)" style="stroke: #A80036; stroke-width: 1.0;"/><path d="M597,202.9609 L597,212.9609 L607,212.9609 L597,202.9609 " fill="#FBFB77" style="stroke: #A80036; stroke-width: 1.0;"/><text fill="#000000" font-family="sans-serif" font-size="13" lengthAdjust="spacingAndGlyphs" textLength="148" x="387" y="220.0278">On every data received</text><text fill="#000000" font-family="sans-serif" font-size="13" lengthAdjust="spacingAndGlyphs" textLength="151" x="387" y="235.1606">check AUTH from Client</text><text fill="#000000" font-family="sans-serif" font-size="13" lengthAdjust="spacingAndGlyphs" textLength="205" x="387" y="250.2935">MyServerProtocol:lineReceived()</text><line style="stroke: #A80036; stroke-width: 1.0;" x1="376.5" x2="418.5" y1="303.625" y2="303.625"/><line style="stroke: #A80036; stroke-width: 1.0;" x1="418.5" x2="418.5" y1="303.625" y2="316.625"/><line style="stroke: #A80036; stroke-width: 1.0;" x1="377.5" x2="418.5" y1="316.625" y2="316.625"/><polygon fill="#A80036" points="387.5,312.625,377.5,316.625,387.5,320.625,383.5,316.625" style="stroke: #A80036; stroke-width: 1.0;"/><text fill="#000000" font-family="sans-serif" font-size="13" lengthAdjust="spacingAndGlyphs" textLength="393" x="383.5" y="283.4263">MyServerProtocol: rawDataReceived(DataType.SCREENSHOT)</text><text fill="#000000" font-family="sans-serif" font-size="13" lengthAdjust="spacingAndGlyphs" textLength="227" x="383.5" y="298.5591">ServerUI: createOrUpdateListItem()</text><path d="M331,329.625 L331,354.625 L418,354.625 L418,339.625 L408,329.625 L331,329.625 " fill="#FBFB77" filter="url(#fr7vz2un993h5)" style="stroke: #A80036; stroke-width: 1.0;"/><path d="M408,329.625 L408,339.625 L418,339.625 L408,329.625 " fill="#FBFB77" style="stroke: #A80036; stroke-width: 1.0;"/><text fill="#000000" font-family="sans-serif" font-size="13" lengthAdjust="spacingAndGlyphs" textLength="66" x="337" y="346.6919">EXIT EXAM</text><line style="stroke: #A80036; stroke-width: 1.0;" x1="376.5" x2="418.5" y1="384.8906" y2="384.8906"/><line style="stroke: #A80036; stroke-width: 1.0;" x1="418.5" x2="418.5" y1="384.8906" y2="397.8906"/><line style="stroke: #A80036; stroke-width: 1.0;" x1="377.5" x2="418.5" y1="397.8906" y2="397.8906"/><polygon fill="#A80036" points="387.5,393.8906,377.5,397.8906,387.5,401.8906,383.5,397.8906" style="stroke: #A80036; stroke-width: 1.0;"/><text fill="#000000" font-family="sans-serif" font-size="13" lengthAdjust="spacingAndGlyphs" textLength="194" x="383.5" y="379.8247">ServerUI: _on_exit_exam(who)</text><polygon fill="#A80036" points="62.5,438.1563,52.5,442.1563,62.5,446.1563,58.5,442.1563" style="stroke: #A80036; stroke-width: 1.0;"/><line style="stroke: #A80036; stroke-width: 1.0;" x1="56.5" x2="375.5" y1="442.1563" y2="442.1563"/><text fill="#000000" font-family="sans-serif" font-size="13" lengthAdjust="spacingAndGlyphs" textLength="229" x="68.5" y="421.9575">server2client: request_abgabe(who)</text><text fill="#000000" font-family="sans-serif" font-size="13" lengthAdjust="spacingAndGlyphs" textLength="132" x="68.5" y="437.0903">FILETRANSFER:SEND</text><line style="stroke: #A80036; stroke-width: 1.0;" x1="51.5" x2="93.5" y1="471.2891" y2="471.2891"/><line style="stroke: #A80036; stroke-width: 1.0;" x1="93.5" x2="93.5" y1="471.2891" y2="484.2891"/><line style="stroke: #A80036; stroke-width: 1.0;" x1="52.5" x2="93.5" y1="484.2891" y2="484.2891"/><polygon fill="#A80036" points="62.5,480.2891,52.5,484.2891,62.5,488.2891,58.5,484.2891" style="stroke: #A80036; stroke-width: 1.0;"/><text fill="#000000" font-family="sans-serif" font-size="13" lengthAdjust="spacingAndGlyphs" textLength="265" x="58.5" y="466.2231">client2server: file_transfer_request(client)</text><polygon fill="#A80036" points="364.5,509.4219,374.5,513.4219,364.5,517.4219,368.5,513.4219" style="stroke: #A80036; stroke-width: 1.0;"/><line style="stroke: #A80036; stroke-width: 1.0;" x1="51.5" x2="370.5" y1="513.4219" y2="513.4219"/><text fill="#000000" font-family="sans-serif" font-size="13" lengthAdjust="spacingAndGlyphs" textLength="301" x="58.5" y="508.356">examclient_plugin: _sendFile(filename, filetype)</text><polygon fill="#A80036" points="766.5,538.5547,776.5,542.5547,766.5,546.5547,770.5,542.5547" style="stroke: #A80036; stroke-width: 1.0;"/><line style="stroke: #A80036; stroke-width: 1.0;" x1="376.5" x2="772.5" y1="542.5547" y2="542.5547"/><text fill="#000000" font-family="sans-serif" font-size="13" lengthAdjust="spacingAndGlyphs" textLength="128" x="383.5" y="537.4888">&lt;&lt; Thread-Wait &gt;&gt;</text><polygon fill="#A80036" points="62.5,582.8203,52.5,586.8203,62.5,590.8203,58.5,586.8203" style="stroke: #A80036; stroke-width: 1.0;"/><line style="stroke: #A80036; stroke-width: 1.0;" x1="56.5" x2="782.5" y1="586.8203" y2="586.8203"/><text fill="#000000" font-family="sans-serif" font-size="13" lengthAdjust="spacingAndGlyphs" textLength="156" x="68.5" y="566.6216">server2client: exit_exam</text><text fill="#000000" font-family="sans-serif" font-size="13" lengthAdjust="spacingAndGlyphs" textLength="62" x="68.5" y="581.7544">EXITEXAM</text><!--MD5=[421e6c963f13cf8b9ca635e3d9c9b258]
@startuml
Client -> Server: Multicast Call
Server - -> Client: Multicast Response
note right: Awaiting Connection\nfrom Client
Client->Client: starts twisted daemon in background

group twisted daemon examclient_plugin runs on client
	Client -> Server: connectionMade(): AUTH
	note right: On every data received\ncheck AUTH from Client\nMyServerProtocol:lineReceived()
	Server -> Server: MyServerProtocol: rawDataReceived(DataType.SCREENSHOT)\nServerUI: createOrUpdateListItem()
	
	note over Server: EXIT EXAM
	Server -> Server: ServerUI: _on_exit_exam(who)
	Server -> Client: server2client: request_abgabe(who)\nFILETRANSFER:SEND
	
	Client -> Client: client2server: file_transfer_request(client)
	Client -> Server: examclient_plugin: _sendFile(filename, filetype)
	
	
	Server -> Thread: << Thread-Wait >>
	activate Thread
	
	Thread -> Client: server2client: exit_exam\nEXITEXAM
	deactivate Thread
	
	
end

@enduml 

PlantUML version 1.2019.13(Tue Dec 10 18:18:29 CET 2019)
(GPL source distribution)
Java Runtime: OpenJDK Runtime Environment
JVM: OpenJDK 64-Bit Server VM
Java Version: 11.0.4+11-post-Ubuntu-1ubuntu218.04.3
Operating System: Linux
Default Encoding: UTF-8
Language: de
Country: AT
--></g></svg>