<?xml version="1.0" encoding="UTF-8" standalone="no"?><svg xmlns="http://www.w3.org/2000/svg" xmlns:xlink="http://www.w3.org/1999/xlink" contentScriptType="application/ecmascript" contentStyleType="text/css" height="793px" preserveAspectRatio="none" style="width:614px;height:793px;" version="1.1" viewBox="0 0 614 793" width="614px" zoomAndPan="magnify"><defs><filter height="300%" id="fupz4bhxbh1pj" width="300%" x="-1" y="-1"><feGaussianBlur result="blurOut" stdDeviation="2.0"/><feColorMatrix in="blurOut" result="blurOut2" type="matrix" values="0 0 0 0 0 0 0 0 0 0 0 0 0 0 0 0 0 0 .4 0"/><feOffset dx="4.0" dy="4.0" in="blurOut2" result="blurOut3"/><feBlend in="SourceGraphic" in2="blurOut3" mode="normal"/></filter></defs><g><rect fill="#FFFFFF" filter="url(#fupz4bhxbh1pj)" height="172.9711" style="stroke: #A80036; stroke-width: 1.0;" width="10" x="253" y="70.9209"/><rect fill="#FFFFFF" filter="url(#fupz4bhxbh1pj)" height="30" style="stroke: #A80036; stroke-width: 1.0;" width="10" x="368.5" y="98.7739"/><rect fill="#FFFFFF" filter="url(#fupz4bhxbh1pj)" height="30" style="stroke: #A80036; stroke-width: 1.0;" width="10" x="368.5" y="436.4221"/><rect fill="#FFFFFF" filter="url(#fupz4bhxbh1pj)" height="228.6771" style="stroke: #A80036; stroke-width: 1.0;" width="10" x="476.5" y="408.5691"/><line style="stroke: #A80036; stroke-width: 1.0; stroke-dasharray: 5.0,5.0;" x1="167" x2="167" y1="41.0679" y2="750.3642"/><line style="stroke: #A80036; stroke-width: 1.0; stroke-dasharray: 5.0,5.0;" x1="258" x2="258" y1="41.0679" y2="750.3642"/><line style="stroke: #A80036; stroke-width: 1.0; stroke-dasharray: 5.0,5.0;" x1="373" x2="373" y1="41.0679" y2="750.3642"/><line style="stroke: #A80036; stroke-width: 1.0; stroke-dasharray: 5.0,5.0;" x1="481" x2="481" y1="41.0679" y2="750.3642"/><rect fill="#FEFECE" filter="url(#fupz4bhxbh1pj)" height="33.0679" style="stroke: #A80036; stroke-width: 1.5;" width="57" x="137" y="3"/><text fill="#000000" font-family="sans-serif" font-size="14" lengthAdjust="spacingAndGlyphs" textLength="43" x="144" y="24.9659">Server</text><rect fill="#FEFECE" filter="url(#fupz4bhxbh1pj)" height="33.0679" style="stroke: #A80036; stroke-width: 1.5;" width="57" x="137" y="749.3642"/><text fill="#000000" font-family="sans-serif" font-size="14" lengthAdjust="spacingAndGlyphs" textLength="43" x="144" y="771.3301">Server</text><rect fill="#FEFECE" filter="url(#fupz4bhxbh1pj)" height="33.0679" style="stroke: #A80036; stroke-width: 1.5;" width="96" x="208" y="3"/><text fill="#000000" font-family="sans-serif" font-size="14" lengthAdjust="spacingAndGlyphs" textLength="82" x="215" y="24.9659">Thread_jobs</text><rect fill="#FEFECE" filter="url(#fupz4bhxbh1pj)" height="33.0679" style="stroke: #A80036; stroke-width: 1.5;" width="96" x="208" y="749.3642"/><text fill="#000000" font-family="sans-serif" font-size="14" lengthAdjust="spacingAndGlyphs" textLength="82" x="215" y="771.3301">Thread_jobs</text><rect fill="#FEFECE" filter="url(#fupz4bhxbh1pj)" height="33.0679" style="stroke: #A80036; stroke-width: 1.5;" width="107" x="318" y="3"/><text fill="#000000" font-family="sans-serif" font-size="14" lengthAdjust="spacingAndGlyphs" textLength="93" x="325" y="24.9659">PeriodicTimer</text><rect fill="#FEFECE" filter="url(#fupz4bhxbh1pj)" height="33.0679" style="stroke: #A80036; stroke-width: 1.5;" width="107" x="318" y="749.3642"/><text fill="#000000" font-family="sans-serif" font-size="14" lengthAdjust="spacingAndGlyphs" textLength="93" x="325" y="771.3301">PeriodicTimer</text><rect fill="#FEFECE" filter="url(#fupz4bhxbh1pj)" height="33.0679" style="stroke: #A80036; stroke-width: 1.5;" width="81" x="439" y="3"/><text fill="#000000" font-family="sans-serif" font-size="14" lengthAdjust="spacingAndGlyphs" textLength="67" x="446" y="24.9659">Heartbeat</text><rect fill="#FEFECE" filter="url(#fupz4bhxbh1pj)" height="33.0679" style="stroke: #A80036; stroke-width: 1.5;" width="81" x="439" y="749.3642"/><text fill="#000000" font-family="sans-serif" font-size="14" lengthAdjust="spacingAndGlyphs" textLength="67" x="446" y="771.3301">Heartbeat</text><rect fill="#FFFFFF" filter="url(#fupz4bhxbh1pj)" height="172.9711" style="stroke: #A80036; stroke-width: 1.0;" width="10" x="253" y="70.9209"/><rect fill="#FFFFFF" filter="url(#fupz4bhxbh1pj)" height="30" style="stroke: #A80036; stroke-width: 1.0;" width="10" x="368.5" y="98.7739"/><rect fill="#FFFFFF" filter="url(#fupz4bhxbh1pj)" height="30" style="stroke: #A80036; stroke-width: 1.0;" width="10" x="368.5" y="436.4221"/><rect fill="#FFFFFF" filter="url(#fupz4bhxbh1pj)" height="228.6771" style="stroke: #A80036; stroke-width: 1.0;" width="10" x="476.5" y="408.5691"/><polygon fill="#A80036" points="241,66.9209,251,70.9209,241,74.9209,245,70.9209" style="stroke: #A80036; stroke-width: 1.0;"/><line style="stroke: #A80036; stroke-width: 1.0;" x1="167.5" x2="247" y1="70.9209" y2="70.9209"/><path d="M44,56.0679 L44,83.0679 L158,83.0679 L158,66.0679 L148,56.0679 L44,56.0679 " fill="#FBFB77" filter="url(#fupz4bhxbh1pj)" style="stroke: #A80036; stroke-width: 1.0;"/><path d="M148,56.0679 L148,66.0679 L158,66.0679 L148,56.0679 " fill="#FBFB77" style="stroke: #A80036; stroke-width: 1.0;"/><text fill="#000000" font-family="sans-serif" font-size="13" lengthAdjust="spacingAndGlyphs" textLength="93" x="50" y="74.9649">waiting for Jobs</text><polygon fill="#A80036" points="356.5,94.7739,366.5,98.7739,356.5,102.7739,360.5,98.7739" style="stroke: #A80036; stroke-width: 1.0;"/><line style="stroke: #A80036; stroke-width: 1.0;" x1="263" x2="362.5" y1="98.7739" y2="98.7739"/><path d="M378,141.7739 L378,168.7739 L560,168.7739 L560,151.7739 L550,141.7739 L378,141.7739 " fill="#FBFB77" filter="url(#fupz4bhxbh1pj)" style="stroke: #A80036; stroke-width: 1.0;"/><path d="M550,141.7739 L550,151.7739 L560,151.7739 L550,141.7739 " fill="#FBFB77" style="stroke: #A80036; stroke-width: 1.0;"/><text fill="#000000" font-family="sans-serif" font-size="13" lengthAdjust="spacingAndGlyphs" textLength="161" x="384" y="160.6709">every x seconds check Jobs</text><path d="M272,183.4799 L272,228.4799 L470,228.4799 L470,193.4799 L460,183.4799 L272,183.4799 " fill="#FBFB77" filter="url(#fupz4bhxbh1pj)" style="stroke: #A80036; stroke-width: 1.0;"/><path d="M460,183.4799 L460,193.4799 L470,193.4799 L460,183.4799 " fill="#FBFB77" style="stroke: #A80036; stroke-width: 1.0;"/><text fill="#000000" font-family="sans-serif" font-size="13" lengthAdjust="spacingAndGlyphs" textLength="177" x="278" y="202.377">Jobs per client and type of job</text><text fill="#000000" font-family="sans-serif" font-size="13" lengthAdjust="spacingAndGlyphs" textLength="152" x="281" y="220.083">retries a failed job n times</text><polygon fill="#A80036" points="269,239.892,259,243.892,269,247.892,265,243.892" style="stroke: #A80036; stroke-width: 1.0;"/><line style="stroke: #A80036; stroke-width: 1.0;" x1="263" x2="372.5" y1="243.892" y2="243.892"/><path d="M208,256.892 L208,283.892 L303,283.892 L303,266.892 L293,256.892 L208,256.892 " fill="#FBFB77" filter="url(#fupz4bhxbh1pj)" style="stroke: #A80036; stroke-width: 1.0;"/><path d="M293,256.892 L293,266.892 L303,266.892 L293,256.892 " fill="#FBFB77" style="stroke: #A80036; stroke-width: 1.0;"/><text fill="#000000" font-family="sans-serif" font-size="13" lengthAdjust="spacingAndGlyphs" textLength="74" x="214" y="275.789">no jobs? idle</text><polygon fill="#A80036" points="246,313.304,256,317.304,246,321.304,250,317.304" style="stroke: #A80036; stroke-width: 1.0;"/><line style="stroke: #A80036; stroke-width: 1.0;" x1="167.5" x2="252" y1="317.304" y2="317.304"/><text fill="#000000" font-family="sans-serif" font-size="13" lengthAdjust="spacingAndGlyphs" textLength="35" x="174.5" y="311.495">stop()</text><polygon fill="#A80036" points="361.5,345.01,371.5,349.01,361.5,353.01,365.5,349.01" style="stroke: #A80036; stroke-width: 1.0;"/><line style="stroke: #A80036; stroke-width: 1.0;" x1="258" x2="367.5" y1="349.01" y2="349.01"/><text fill="#000000" font-family="sans-serif" font-size="13" lengthAdjust="spacingAndGlyphs" textLength="35" x="265" y="343.201">stop()</text><polygon fill="#A80036" points="178.5,376.716,168.5,380.716,178.5,384.716,174.5,380.716" style="stroke: #A80036; stroke-width: 1.0;"/><line style="stroke: #A80036; stroke-width: 1.0;" x1="172.5" x2="372.5" y1="380.716" y2="380.716"/><text fill="#000000" font-family="sans-serif" font-size="13" lengthAdjust="spacingAndGlyphs" textLength="43" x="184.5" y="374.907">done ...</text><polygon fill="#A80036" points="464.5,404.5691,474.5,408.5691,464.5,412.5691,468.5,408.5691" style="stroke: #A80036; stroke-width: 1.0;"/><line style="stroke: #A80036; stroke-width: 1.0;" x1="167.5" x2="470.5" y1="408.5691" y2="408.5691"/><path d="M8,393.716 L8,420.716 L159,420.716 L159,403.716 L149,393.716 L8,393.716 " fill="#FBFB77" filter="url(#fupz4bhxbh1pj)" style="stroke: #A80036; stroke-width: 1.0;"/><path d="M149,393.716 L149,403.716 L159,403.716 L149,393.716 " fill="#FBFB77" style="stroke: #A80036; stroke-width: 1.0;"/><text fill="#000000" font-family="sans-serif" font-size="13" lengthAdjust="spacingAndGlyphs" textLength="130" x="14" y="412.6131">_add Client, create HB</text><polygon fill="#A80036" points="389.5,432.4221,379.5,436.4221,389.5,440.4221,385.5,436.4221" style="stroke: #A80036; stroke-width: 1.0;"/><line style="stroke: #A80036; stroke-width: 1.0;" x1="383.5" x2="475.5" y1="436.4221" y2="436.4221"/><path d="M378,479.4221 L378,506.4221 L602,506.4221 L602,489.4221 L592,479.4221 L378,479.4221 " fill="#FBFB77" filter="url(#fupz4bhxbh1pj)" style="stroke: #A80036; stroke-width: 1.0;"/><path d="M592,479.4221 L592,489.4221 L602,489.4221 L592,479.4221 " fill="#FBFB77" style="stroke: #A80036; stroke-width: 1.0;"/><text fill="#000000" font-family="sans-serif" font-size="13" lengthAdjust="spacingAndGlyphs" textLength="203" x="384" y="498.3191">every x seconds check HB of client</text><path d="M323,521.1281 L323,548.1281 L420,548.1281 L420,531.1281 L410,521.1281 L323,521.1281 " fill="#FBFB77" filter="url(#fupz4bhxbh1pj)" style="stroke: #A80036; stroke-width: 1.0;"/><path d="M410,521.1281 L410,531.1281 L420,531.1281 L410,521.1281 " fill="#FBFB77" style="stroke: #A80036; stroke-width: 1.0;"/><text fill="#000000" font-family="sans-serif" font-size="13" lengthAdjust="spacingAndGlyphs" textLength="76" x="329" y="540.0251">retry n times</text><polygon fill="#A80036" points="464.5,559.8341,474.5,563.8341,464.5,567.8341,468.5,563.8341" style="stroke: #A80036; stroke-width: 1.0;"/><line style="stroke: #A80036; stroke-width: 1.0;" x1="373.5" x2="470.5" y1="563.8341" y2="563.8341"/><path d="M359,576.8341 L359,603.8341 L599,603.8341 L599,586.8341 L589,576.8341 L359,576.8341 " fill="#FBFB77" filter="url(#fupz4bhxbh1pj)" style="stroke: #A80036; stroke-width: 1.0;"/><path d="M589,576.8341 L589,586.8341 L599,586.8341 L589,576.8341 " fill="#FBFB77" style="stroke: #A80036; stroke-width: 1.0;"/><text fill="#000000" font-family="sans-serif" font-size="13" lengthAdjust="spacingAndGlyphs" textLength="219" x="365" y="595.7311">no Heartbeat of client &gt; kickZombie()</text><polygon fill="#A80036" points="178.5,633.2461,168.5,637.2461,178.5,641.2461,174.5,637.2461" style="stroke: #A80036; stroke-width: 1.0;"/><line style="stroke: #A80036; stroke-width: 1.0;" x1="172.5" x2="480.5" y1="637.2461" y2="637.2461"/><text fill="#000000" font-family="sans-serif" font-size="13" lengthAdjust="spacingAndGlyphs" textLength="154" x="184.5" y="631.4371">ServerUI.removeZombie()</text><polygon fill="#A80036" points="469.5,664.9521,479.5,668.9521,469.5,672.9521,473.5,668.9521" style="stroke: #A80036; stroke-width: 1.0;"/><line style="stroke: #A80036; stroke-width: 1.0;" x1="167.5" x2="475.5" y1="668.9521" y2="668.9521"/><text fill="#000000" font-family="sans-serif" font-size="13" lengthAdjust="spacingAndGlyphs" textLength="35" x="174.5" y="663.1431">stop()</text><polygon fill="#A80036" points="384.5,696.6582,374.5,700.6582,384.5,704.6582,380.5,700.6582" style="stroke: #A80036; stroke-width: 1.0;"/><line style="stroke: #A80036; stroke-width: 1.0;" x1="378.5" x2="480.5" y1="700.6582" y2="700.6582"/><text fill="#000000" font-family="sans-serif" font-size="13" lengthAdjust="spacingAndGlyphs" textLength="35" x="390.5" y="694.8492">stop()</text><polygon fill="#A80036" points="178.5,728.3642,168.5,732.3642,178.5,736.3642,174.5,732.3642" style="stroke: #A80036; stroke-width: 1.0;"/><line style="stroke: #A80036; stroke-width: 1.0;" x1="172.5" x2="372.5" y1="732.3642" y2="732.3642"/><text fill="#000000" font-family="sans-serif" font-size="13" lengthAdjust="spacingAndGlyphs" textLength="43" x="184.5" y="726.5552">done ...</text><!--MD5=[6e34b22dfebc4ae64f2df47d2ed9d72f]
@startuml
	Server -> Thread_jobs:
	note left: waiting for Jobs
	activate Thread_jobs
	
	
	
	Thread_jobs -> PeriodicTimer
	note right PeriodicTimer: every x seconds check Jobs
	activate PeriodicTimer
	note over PeriodicTimer: Jobs per client and type of job\n retries a failed job n times
	deactivate PeriodicTimer
	PeriodicTimer -> Thread_jobs
	note over Thread_jobs: no jobs? idle
	deactivate Thread_jobs
	
	Server -> Thread_jobs: stop()
	Thread_jobs -> PeriodicTimer: stop()
	PeriodicTimer -> Server: done ...
	
	Server -> Heartbeat:
	note left: _add Client, create HB
	activate Heartbeat
	
	Heartbeat -> PeriodicTimer
	note right PeriodicTimer: every x seconds check HB of client
	activate PeriodicTimer
	note over PeriodicTimer: retry n times
	deactivate PeriodicTimer
	
	PeriodicTimer -> Heartbeat
	note over Heartbeat: no Heartbeat of client > kickZombie()
	Heartbeat -> Server: ServerUI.removeZombie()
	deactivate Heartbeat
	
	Server -> Heartbeat: stop()
	Heartbeat -> PeriodicTimer: stop()
	PeriodicTimer -> Server: done ...
@enduml 

PlantUML version 1.2020.11(Sat May 30 12:13:43 CEST 2020)
(GPL source distribution)
Java Runtime: OpenJDK Runtime Environment
JVM: OpenJDK 64-Bit Server VM
Default Encoding: UTF-8
Language: de
Country: AT
--></g></svg>