<?xml version="1.0" encoding="UTF-8" standalone="no"?>
<svg
   xmlns:dc="http://purl.org/dc/elements/1.1/"
   xmlns:cc="http://creativecommons.org/ns#"
   xmlns:rdf="http://www.w3.org/1999/02/22-rdf-syntax-ns#"
   xmlns:svg="http://www.w3.org/2000/svg"
   xmlns="http://www.w3.org/2000/svg"
   xmlns:sodipodi="http://sodipodi.sourceforge.net/DTD/sodipodi-0.dtd"
   xmlns:inkscape="http://www.inkscape.org/namespaces/inkscape"
   version="1.1"
   id="Layer_1"
   x="0px"
   y="0px"
   viewBox="0 0 499.99999 499.99999"
   xml:space="preserve"
   sodipodi:docname="file_ok_cancel.svg"
   inkscape:version="1.0 (4035a4fb49, 2020-05-01)"
   width="500"
   height="500"
   inkscape:export-filename="C:\Users\Stefan\OneDrive - BRG Frauengasse\Dokumente\MyWorkStuff\PYTHON\PyStuff\Qt\OvelayIcons\test\file_error.png"
   inkscape:export-xdpi="24.58"
   inkscape:export-ydpi="24.58"><metadata
   id="metadata47"><rdf:RDF><cc:Work
       rdf:about=""><dc:format>image/svg+xml</dc:format><dc:type
         rdf:resource="http://purl.org/dc/dcmitype/StillImage" /><dc:title /></cc:Work></rdf:RDF></metadata><defs
   id="defs45" /><sodipodi:namedview
   pagecolor="#ffffff"
   bordercolor="#666666"
   borderopacity="1"
   objecttolerance="10"
   gridtolerance="10"
   guidetolerance="10"
   inkscape:pageopacity="0"
   inkscape:pageshadow="2"
   inkscape:window-width="1600"
   inkscape:window-height="837"
   id="namedview43"
   showgrid="false"
   inkscape:zoom="0.32901656"
   inkscape:cx="18.564076"
   inkscape:cy="557.94033"
   inkscape:window-x="-8"
   inkscape:window-y="-8"
   inkscape:window-maximized="1"
   inkscape:current-layer="Layer_1"
   inkscape:document-rotation="0" />
<text
   xml:space="preserve"
   style="font-style:normal;font-variant:normal;font-weight:normal;font-stretch:normal;font-size:40px;line-height:1.25;font-family:Symbol;-inkscape-font-specification:Symbol;letter-spacing:0px;word-spacing:0px;fill:#000000;fill-opacity:1;stroke:none"
   x="175.35234"
   y="617.05817"
   id="text845-4"><tspan
     sodipodi:role="line"
     id="tspan843-6"
     x="175.35234"
     y="617.05817"
     style="font-style:normal;font-variant:normal;font-weight:normal;font-stretch:normal;font-family:Tahoma;-inkscape-font-specification:Tahoma">file_ok</tspan></text>





<g
   style="stroke:none;stroke-width:1.0003;stroke-miterlimit:4;stroke-dasharray:none"
   id="g44"
   transform="matrix(0.88373918,0,0,0.88373918,743.17286,-113.10538)"
   inkscape:export-xdpi="26"
   inkscape:export-ydpi="26"><circle
     inkscape:export-ydpi="2.26"
     inkscape:export-xdpi="2.26"
     id="circle2"
     r="253.60001"
     cy="211.39999"
     cx="253.60001"
     style="fill:#32ba7c;stroke:none;stroke-width:1.0003;stroke-miterlimit:4;stroke-dasharray:none;stroke-opacity:1" /><path
     inkscape:connector-curvature="0"
     inkscape:export-ydpi="2.26"
     inkscape:export-xdpi="2.26"
     id="path4"
     d="m 188.8,325.79999 130.4,130.4 c 108,-28.8 188,-127.2 188,-244.8 0,-2.4 0,-4.8 0,-7.2 l -102.4,-94.4 z"
     style="fill:#0aa06e;stroke:none;stroke-width:1.0003;stroke-miterlimit:4;stroke-dasharray:none" /><g
     style="stroke:none;stroke-width:1.0003;stroke-miterlimit:4;stroke-dasharray:none"
     transform="translate(0,-42.200014)"
     inkscape:export-ydpi="2.26"
     inkscape:export-xdpi="2.26"
     id="g10">
	<path
   inkscape:connector-curvature="0"
   id="path6"
   d="m 260,310.4 c 11.2,11.2 11.2,30.4 0,41.6 l -23.2,23.2 c -11.2,11.2 -30.4,11.2 -41.6,0 L 93.6,272.8 c -11.2,-11.2 -11.2,-30.4 0,-41.6 L 116.8,208 c 11.2,-11.2 30.4,-11.2 41.6,0 z"
   style="fill:#ffffff;stroke:none;stroke-width:1.0003;stroke-miterlimit:4;stroke-dasharray:none" />
	<path
   inkscape:connector-curvature="0"
   id="path8"
   d="m 348.8,133.6 c 11.2,-11.2 30.4,-11.2 41.6,0 l 23.2,23.2 c 11.2,11.2 11.2,30.4 0,41.6 l -176,175.2 c -11.2,11.2 -30.4,11.2 -41.6,0 l -23.2,-23.2 c -11.2,-11.2 -11.2,-30.4 0,-41.6 z"
   style="fill:#ffffff;stroke:none;stroke-width:1.0003;stroke-miterlimit:4;stroke-dasharray:none" />
</g></g>
<g
   id="g12"
   transform="translate(0,-42.200014)">
</g>
<g
   id="g14"
   transform="translate(0,-42.200014)">
</g>
<g
   id="g16"
   transform="translate(0,-42.200014)">
</g>
<g
   id="g18"
   transform="translate(0,-42.200014)">
</g>
<g
   id="g20"
   transform="translate(0,-42.200014)">
</g>
<g
   id="g22"
   transform="translate(0,-42.200014)">
</g>
<g
   id="g24"
   transform="translate(0,-42.200014)">
</g>
<g
   id="g26"
   transform="translate(0,-42.200014)">
</g>
<g
   id="g28"
   transform="translate(0,-42.200014)">
</g>
<g
   id="g30"
   transform="translate(0,-42.200014)">
</g>
<g
   id="g32"
   transform="translate(0,-42.200014)">
</g>
<g
   id="g34"
   transform="translate(0,-42.200014)">
</g>
<g
   id="g36"
   transform="translate(0,-42.200014)">
</g>
<g
   id="g38"
   transform="translate(0,-42.200014)">
</g>
<g
   id="g40"
   transform="translate(0,-42.200014)">
</g>
<rect
   style="fill:#ff0000;fill-opacity:1;stroke:none;stroke-width:33.6;stroke-linecap:round;stroke-linejoin:round;stroke-miterlimit:4;stroke-dasharray:none;stroke-opacity:1"
   id="rect836"
   width="167.6339"
   height="137.54576"
   x="-1068.1288"
   y="-29.305099" /><rect
   style="fill:#32ba7c;fill-opacity:1;stroke:none;stroke-width:33.6;stroke-linecap:round;stroke-linejoin:round;stroke-miterlimit:4;stroke-dasharray:none;stroke-opacity:1"
   id="rect836-7"
   width="167.6339"
   height="137.54576"
   x="-1068.1288"
   y="108.24066" /><rect
   style="fill:#ad0e0e;fill-opacity:1;stroke:none;stroke-width:33.6;stroke-linecap:round;stroke-linejoin:round;stroke-miterlimit:4;stroke-dasharray:none;stroke-opacity:1"
   id="rect836-1"
   width="167.6339"
   height="137.54576"
   x="-900.49487"
   y="-29.305094" /><rect
   style="fill:#0aa06e;fill-opacity:1;stroke:none;stroke-width:33.6;stroke-linecap:round;stroke-linejoin:round;stroke-miterlimit:4;stroke-dasharray:none;stroke-opacity:1"
   id="rect836-7-1"
   width="167.6339"
   height="137.54576"
   x="-900.49487"
   y="108.24066" /><text
   xml:space="preserve"
   style="font-style:normal;font-variant:normal;font-weight:normal;font-stretch:normal;font-size:40px;line-height:1.25;font-family:Symbol;-inkscape-font-specification:Symbol;letter-spacing:0px;word-spacing:0px;fill:#000000;fill-opacity:1;stroke:none"
   x="-453.47119"
   y="619.73901"
   id="text845"><tspan
     sodipodi:role="line"
     id="tspan843"
     x="-453.47119"
     y="619.73901"
     style="font-style:normal;font-variant:normal;font-weight:normal;font-stretch:normal;font-family:Tahoma;-inkscape-font-specification:Tahoma">file_cancel</tspan></text>



<g
   style="stroke:none"
   transform="translate(17.5,17.5)"
   id="g62"><circle
     inkscape:export-ydpi="2.26"
     inkscape:export-xdpi="2.26"
     id="circle2-2"
     r="224.11626"
     cy="232.5"
     cx="232.5"
     style="fill:#ff0000;fill-opacity:1;stroke:none;stroke-width:1.76748;stroke-miterlimit:4;stroke-dasharray:none;stroke-opacity:1" /><path
     inkscape:export-ydpi="2.26"
     inkscape:export-xdpi="2.26"
     id="path4-0"
     d="M 138.47016,333.59976 259.36568,454.49528 C 361.17243,442.47643 441.76944,362.58641 454.49529,260.77965 L 332.89278,139.17714 Z"
     style="fill:#ad0e0e;stroke:none;stroke-width:0.883739"
     inkscape:connector-curvature="0" /><path
     inkscape:export-ydpi="2.26"
     inkscape:export-xdpi="2.26"
     id="path6-9"
     d="m 338.54871,281.98939 c 9.89788,9.89788 9.89788,26.86568 0,36.76355 l -19.79576,19.79576 c -9.89788,9.89788 -26.86567,9.89788 -36.76355,0 L 126.4513,183.01061 c -9.89787,-9.89788 -9.89787,-26.86567 0,-36.76355 l 20.50275,-20.50276 c 9.89788,-9.89787 26.86567,-9.89787 36.76355,0 z"
     style="fill:#ffffff;stroke:none;stroke-width:0.883739"
     inkscape:connector-curvature="0" /><path
     inkscape:export-ydpi="2.26"
     inkscape:export-xdpi="2.26"
     id="path10"
     d="m 281.9894,126.4513 c 9.89788,-9.89788 26.86567,-9.89788 36.76355,0 l 20.50275,20.50275 c 9.89788,9.89788 9.89788,26.86567 0,36.76355 L 183.01061,338.5487 c -9.89788,9.89788 -26.86567,9.89788 -36.76355,0 L 126.4513,318.75294 c -9.89787,-9.89787 -9.89787,-26.86567 0,-36.76355 z"
     style="fill:#ffffff;stroke:none;stroke-width:0.883739"
     inkscape:connector-curvature="0" /></g></svg>
