<?xml version="1.0" encoding="UTF-8" standalone="no"?>
<!-- Generator: Adobe Illustrator 19.0.0, SVG Export Plug-In . SVG Version: 6.00 Build 0)  -->

<svg
   xmlns:dc="http://purl.org/dc/elements/1.1/"
   xmlns:cc="http://creativecommons.org/ns#"
   xmlns:rdf="http://www.w3.org/1999/02/22-rdf-syntax-ns#"
   xmlns:svg="http://www.w3.org/2000/svg"
   xmlns="http://www.w3.org/2000/svg"
   xmlns:sodipodi="http://sodipodi.sourceforge.net/DTD/sodipodi-0.dtd"
   xmlns:inkscape="http://www.inkscape.org/namespaces/inkscape"
   version="1.1"
   id="Layer_1"
   x="0px"
   y="0px"
   viewBox="0 0 507.2 507.2"
   style="enable-background:new 0 0 507.2 507.2;"
   xml:space="preserve"
   sodipodi:docname="file_ok_cancel.svg"
   inkscape:version="0.92.4 (5da689c313, 2019-01-14)"><metadata
   id="metadata47"><rdf:RDF><cc:Work
       rdf:about=""><dc:format>image/svg+xml</dc:format><dc:type
         rdf:resource="http://purl.org/dc/dcmitype/StillImage" /><dc:title /></cc:Work></rdf:RDF></metadata><defs
   id="defs45" /><sodipodi:namedview
   pagecolor="#ffffff"
   bordercolor="#666666"
   borderopacity="1"
   objecttolerance="10"
   gridtolerance="10"
   guidetolerance="10"
   inkscape:pageopacity="0"
   inkscape:pageshadow="2"
   inkscape:window-width="1920"
   inkscape:window-height="1017"
   id="namedview43"
   showgrid="false"
   inkscape:zoom="0.46529967"
   inkscape:cx="-737.15933"
   inkscape:cy="-15.044066"
   inkscape:window-x="-8"
   inkscape:window-y="-8"
   inkscape:window-maximized="1"
   inkscape:current-layer="Layer_1" />
<text
   xml:space="preserve"
   style="font-style:normal;font-variant:normal;font-weight:normal;font-stretch:normal;font-size:40px;line-height:1.25;font-family:Symbol;-inkscape-font-specification:Symbol;letter-spacing:0px;word-spacing:0px;fill:#000000;fill-opacity:1;stroke:none"
   x="175.35234"
   y="659.25818"
   id="text845-4"><tspan
     sodipodi:role="line"
     id="tspan843-6"
     x="175.35234"
     y="659.25818"
     style="font-style:normal;font-variant:normal;font-weight:normal;font-stretch:normal;font-family:Tahoma;-inkscape-font-specification:Tahoma">file_ok</tspan></text>


<circle
   style="fill:#32BA7C;stroke-width:2;stroke-miterlimit:4;stroke-dasharray:none;stroke:#ffffff;stroke-opacity:1"
   cx="253.6"
   cy="253.6"
   r="253.6"
   id="circle2"
   inkscape:export-xdpi="2.26"
   inkscape:export-ydpi="2.26" />
<path
   style="fill:#0AA06E;"
   d="M188.8,368l130.4,130.4c108-28.8,188-127.2,188-244.8c0-2.4,0-4.8,0-7.2L404.8,152L188.8,368z"
   id="path4"
   inkscape:export-xdpi="2.26"
   inkscape:export-ydpi="2.26" />
<g
   id="g10"
   inkscape:export-xdpi="2.26"
   inkscape:export-ydpi="2.26">
	<path
   style="fill:#FFFFFF;"
   d="M260,310.4c11.2,11.2,11.2,30.4,0,41.6l-23.2,23.2c-11.2,11.2-30.4,11.2-41.6,0L93.6,272.8   c-11.2-11.2-11.2-30.4,0-41.6l23.2-23.2c11.2-11.2,30.4-11.2,41.6,0L260,310.4z"
   id="path6" />
	<path
   style="fill:#FFFFFF;"
   d="M348.8,133.6c11.2-11.2,30.4-11.2,41.6,0l23.2,23.2c11.2,11.2,11.2,30.4,0,41.6l-176,175.2   c-11.2,11.2-30.4,11.2-41.6,0l-23.2-23.2c-11.2-11.2-11.2-30.4,0-41.6L348.8,133.6z"
   id="path8" />
</g>
<g
   id="g12">
</g>
<g
   id="g14">
</g>
<g
   id="g16">
</g>
<g
   id="g18">
</g>
<g
   id="g20">
</g>
<g
   id="g22">
</g>
<g
   id="g24">
</g>
<g
   id="g26">
</g>
<g
   id="g28">
</g>
<g
   id="g30">
</g>
<g
   id="g32">
</g>
<g
   id="g34">
</g>
<g
   id="g36">
</g>
<g
   id="g38">
</g>
<g
   id="g40">
</g>
<circle
   style="fill:#ff0000;fill-opacity:1;stroke:#ffffff;stroke-opacity:1;stroke-width:2;stroke-miterlimit:4;stroke-dasharray:none"
   cx="-350.31189"
   cy="251.45085"
   r="253.60001"
   id="circle2-2"
   inkscape:export-xdpi="2.26"
   inkscape:export-ydpi="2.26" /><path
   inkscape:connector-curvature="0"
   style="fill:#ad0e0e"
   d="m -456.71188,365.85085 136.8,136.8 c 115.2,-13.6 206.4,-104 220.800001,-219.2 l -137.600001,-137.6 z"
   id="path4-0"
   inkscape:export-xdpi="2.26"
   inkscape:export-ydpi="2.26" /><path
   inkscape:connector-curvature="0"
   style="fill:#ffffff"
   d="m -230.31188,307.45085 c 11.2,11.2 11.2,30.4 0,41.6 l -22.4,22.4 c -11.2,11.2 -30.4,11.2 -41.6,0 l -176,-176 c -11.2,-11.2 -11.2,-30.4 0,-41.6 l 23.2,-23.2 c 11.2,-11.2 30.4,-11.2 41.6,0 z"
   id="path6-9"
   inkscape:export-xdpi="2.26"
   inkscape:export-ydpi="2.26" /><path
   inkscape:connector-curvature="0"
   style="fill:#d6d6d6"
   d="m -323.11188,213.85085 -64.8,64.8 93.6,92.8 c 11.2,11.2 30.4,11.2 41.6,0 l 23.2,-23.2 c 11.2,-11.2 11.2,-30.4 0,-41.6 z"
   id="path8-6"
   inkscape:export-xdpi="2.26"
   inkscape:export-ydpi="2.26" /><path
   inkscape:connector-curvature="0"
   style="fill:#ffffff"
   d="m -294.31188,131.45085 c 11.2,-11.2 30.4,-11.2 41.6,0 l 23.2,23.2 c 11.2,11.2 11.2,30.4 0,41.6 l -176.8,175.2 c -11.2,11.2 -30.4,11.2 -41.6,0 l -22.4,-22.4 c -11.2,-11.2 -11.2,-30.4 0,-41.6 z"
   id="path10"
   inkscape:export-xdpi="2.26"
   inkscape:export-ydpi="2.26" /><rect
   style="fill:#ff0000;fill-opacity:1;stroke:none;stroke-width:33.59999847;stroke-linecap:round;stroke-linejoin:round;stroke-miterlimit:4;stroke-dasharray:none;stroke-opacity:1"
   id="rect836"
   width="167.6339"
   height="137.54576"
   x="-1068.1288"
   y="12.894916" /><rect
   style="fill:#32ba7c;fill-opacity:1;stroke:none;stroke-width:33.59999847;stroke-linecap:round;stroke-linejoin:round;stroke-miterlimit:4;stroke-dasharray:none;stroke-opacity:1"
   id="rect836-7"
   width="167.6339"
   height="137.54576"
   x="-1068.1288"
   y="150.44067" /><rect
   style="fill:#ad0e0e;fill-opacity:1;stroke:none;stroke-width:33.59999847;stroke-linecap:round;stroke-linejoin:round;stroke-miterlimit:4;stroke-dasharray:none;stroke-opacity:1"
   id="rect836-1"
   width="167.6339"
   height="137.54576"
   x="-900.49487"
   y="12.89492" /><rect
   style="fill:#0aa06e;fill-opacity:1;stroke:none;stroke-width:33.59999847;stroke-linecap:round;stroke-linejoin:round;stroke-miterlimit:4;stroke-dasharray:none;stroke-opacity:1"
   id="rect836-7-1"
   width="167.6339"
   height="137.54576"
   x="-900.49487"
   y="150.44067" /><text
   xml:space="preserve"
   style="font-style:normal;font-variant:normal;font-weight:normal;font-stretch:normal;font-size:40px;line-height:1.25;font-family:Symbol;-inkscape-font-specification:Symbol;letter-spacing:0px;word-spacing:0px;fill:#000000;fill-opacity:1;stroke:none"
   x="-453.47119"
   y="661.93903"
   id="text845"><tspan
     sodipodi:role="line"
     id="tspan843"
     x="-453.47119"
     y="661.93903"
     style="font-style:normal;font-variant:normal;font-weight:normal;font-stretch:normal;font-family:Tahoma;-inkscape-font-specification:Tahoma">file_cancel</tspan></text>


</svg>